<?xml version="1.0" encoding="UTF-8"?>
<svg width="20px" height="20px" viewBox="0 0 20 20" version="1.1" xmlns="http://www.w3.org/2000/svg" xmlns:xlink="http://www.w3.org/1999/xlink">
    <title>切片</title>
    <defs>
        <path d="M0.302683783,4.5521692 L0.0684804939,5.18407633 L0.0684804939,10.6224669 C0.0684804939,11.6535753 0.894903094,12.4896541 1.91471461,12.4896541 L1.91471461,12.4896541 L13.5670815,12.4896541 C14.5866191,12.4896541 15.4133156,11.6535753 15.4133156,10.6224669 L15.4133156,10.6224669 L15.4133156,4.67073836 L7.56517712,0.129650389 L0.302683783,4.5521692 Z" id="path-1"></path>
        <linearGradient x1="49.9999225%" y1="100.318217%" x2="49.9999225%" y2="24.120762%" id="linearGradient-3">
            <stop stop-color="#9FD2FF" offset="0%"></stop>
            <stop stop-color="#FFFFFF" stop-opacity="0" offset="100%"></stop>
        </linearGradient>
        <filter id="filter-4">
            <feColorMatrix in="SourceGraphic" type="matrix" values="0 0 0 0 0.000000 0 0 0 0 0.462745 0 0 0 0 1.000000 0 0 0 1.000000 0"></feColorMatrix>
        </filter>
    </defs>
    <g id="页面-1" stroke="none" stroke-width="1" fill="none" fill-rule="evenodd">
        <g id="首页" transform="translate(-48.000000, -106.000000)">
            <g id="侧边/选项" transform="translate(24.000000, 92.000000)">
                <g id="侧边/选项-icon" transform="translate(24.000000, 14.000000)">
                    <g id="编组-2" transform="translate(2.000000, 2.000000)">
                        <g id="编组" transform="translate(0.469902, 3.380682)">
                            <mask id="mask-2" fill="white">
                                <use xlink:href="#path-1"></use>
                            </mask>
                            <g id="Clip-2"></g>
                            <path d="M0.302683783,4.5521692 L0.0684804939,5.18407633 L0.0684804939,10.6224669 C0.0684804939,11.6535753 0.894903094,12.4896541 1.91471461,12.4896541 L1.91471461,12.4896541 L13.5670815,12.4896541 C14.5866191,12.4896541 15.4133156,11.6535753 15.4133156,10.6224669 L15.4133156,10.6224669 L15.4133156,4.67073836 L7.56517712,0.129650389 L0.302683783,4.5521692 Z" id="Fill-1" fill="url(#linearGradient-3)" mask="url(#mask-2)"></path>
                        </g>
                        <g filter="url(#filter-4)" id="编组">
                            <g>
                                <path d="M2.62692738,4.0951813 C4.2257841,3.12035676 5.82464083,2.14553222 7.42375859,1.17070768 C7.79077779,0.946917313 8.15805802,0.723126948 8.52507721,0.499074534 L8.25568617,0.499074534 C9.28574146,1.11436701 10.3157967,1.72939744 11.345591,2.34442787 C12.974206,3.31663191 13.8259545,3.84031038 15.4543085,4.81277647 C15.8328133,5.03866324 16.2110571,5.26481205 16.589562,5.49069881 C16.8853179,5.66732024 17.1539258,5.20427859 16.858953,5.0279192 C15.8288977,4.41315082 15.575187,4.24664597 14.5453928,3.63161554 C12.9167777,2.65914945 11.2886847,1.68668335 9.66033075,0.714479311 C9.28182589,0.4883305 8.90358207,0.262443738 8.52507721,0.0365569768 C8.44441652,-0.0116601509 8.33634686,-0.0127083494 8.25568617,0.0365569768 C7.24755806,0.651325356 6.23916891,1.26609373 5.23077976,1.88086211 C3.63192303,2.8554246 2.827215,3.38172357 1.22835828,4.35654811 C0.861078045,4.58033847 0.494058852,4.80439089 0.126778622,5.0279192 C-0.166366865,5.20689908 0.10171899,5.67046484 0.396169665,5.49069881 C1.40455881,4.87593043 1.61879927,4.70994968 2.62692738,4.0951813 Z" id="Fill-3" stroke="#7A3CEF" stroke-width="1.3" fill="#7A3CEF" stroke-linejoin="round"></path>
                                <path d="M7.9630782,3.45666446 C7.51631247,3.6009325 7.09861804,3.92415897 6.70204146,4.16589053 C5.21007977,5.07527473 3.71839233,5.98493425 2.22643064,6.89431845 C1.87455806,7.10906858 1.50650427,7.30922671 1.16642477,7.54297397 C0.717464971,7.85160845 0.477215258,8.3436065 0.472827135,8.88488696 C0.471181589,9.10982395 0.472827135,9.33448562 0.472827135,9.55969794 C0.472827135,11.0866264 0.466244951,12.6138302 0.472827135,14.141034 C0.477763773,15.2406648 1.31918629,16.1321532 2.42499319,16.150049 C2.72119147,16.1550048 3.01793826,16.150049 3.31386228,16.150049 L8.13750608,16.150049 L13.2732551,16.150049 L14.5825612,16.150049 C15.4826748,16.150049 16.3005112,15.6379526 16.5637985,14.743711 C16.7245135,14.1974748 16.6422362,13.5320247 16.6422362,12.9714718 L16.6422362,10.2356102 L16.6422362,9.18305925 C16.6422362,8.96830912 16.6501897,8.7549356 16.6106966,8.54211271 C16.5160777,8.03552266 16.1727071,7.68146027 15.7481563,7.42761461 C15.391347,7.21479172 15.0348121,7.00196884 14.6780029,6.78887063 C14.4366561,6.6446026 14.3790304,6.63703137 14.1374094,6.49276334 C13.8266754,6.3071972 13.5444643,6.79368884 13.8543754,6.97870433 C14.4415611,7.32946288 14.844203,7.54297397 15.4311144,7.89373251 C15.7969741,8.11206181 16.0717803,8.39096166 16.0816536,8.85047187 C16.0846704,8.99556587 16.0816536,9.14093519 16.0816536,9.28575386 L16.0816536,13.9400499 C16.0816536,14.1732465 16.0852189,14.3970823 16.0141862,14.6242218 C15.8339989,15.2010186 15.2854836,15.5779326 14.6928128,15.5872936 C14.4413185,15.5914234 14.18955,15.5872936 13.9380557,15.5872936 L9.46546169,15.5872936 L4.33958594,15.5872936 L2.76754101,15.5872936 C2.2357554,15.5872936 1.73386387,15.5369099 1.35703384,15.0895138 C0.948115667,14.6030221 1.03368406,13.9483096 1.03368406,13.3574714 L1.03368406,10.7799192 C1.03368406,10.1552166 1.03066722,9.52996331 1.03368406,8.90553601 C1.03560386,8.52614411 1.18781687,8.1971359 1.51226368,7.98844283 C1.61949843,7.91961266 1.73002427,7.85573826 1.8386303,7.7896613 C3.19785129,6.96067074 4.55734653,6.13168017 5.91684177,5.30296493 C6.4815383,4.95881408 7.04623483,4.61466324 7.6106571,4.27051239 C7.70747006,4.21131844 7.80318598,4.14964661 7.902193,4.09375651 C8.23431903,3.90626313 8.64186592,3.88644004 8.98743058,4.05163245 C9.11084653,4.11027575 9.22740603,4.18874215 9.34451406,4.25894892 C9.63303312,4.43102434 9.46290851,4.32045409 9.75115332,4.49280484 C10.0621615,4.67809565 10.3443726,4.19187933 10.0341872,4.00658852 C9.27037963,3.55065747 8.90734734,3.15160915 7.9630782,3.45666446 Z" id="Fill-5" stroke="#7A3CEF" stroke-width="1.3" fill="#7A3CEF"></path>
                                <path d="M12.2615344,5.5631021 C12.0873808,5.45903088 11.9129529,5.35495966 11.7387993,5.25088845 C11.7141161,5.23629645 11.6894329,5.22170445 11.6647497,5.20683714 C11.6024932,5.16966885 11.5185704,5.15920666 11.4489089,5.17847911 C11.3839098,5.19637495 11.3131514,5.24703396 11.2813375,5.30760451 C11.2097562,5.4433376 11.2470553,5.6123845 11.3817158,5.69277813 C11.5561437,5.79684935 11.7302973,5.90119589 11.9047252,6.00499178 C11.9294083,6.01958378 11.9538173,6.0344511 11.9785005,6.04931841 C12.040757,6.08621138 12.1249541,6.09667357 12.1946155,6.07740112 C12.2596146,6.05950528 12.3300988,6.00912159 12.3621869,5.9480004 C12.4334939,5.81226731 12.3961949,5.64349573 12.2615344,5.5631021" id="Fill-7" stroke="#7A3CEF" stroke-width="1.3" fill="#7A3CEF"></path>
                            </g>
                        </g>
                    </g>
                </g>
            </g>
        </g>
    </g>
</svg>