<?xml version="1.0" encoding="UTF-8"?>
<svg width="534px" height="198px" viewBox="0 0 534 198" version="1.1" xmlns="http://www.w3.org/2000/svg" xmlns:xlink="http://www.w3.org/1999/xlink">
    <title>bg-jiaoyi</title>
    <defs>
        <linearGradient x1="50%" y1="11.4701055%" x2="50%" y2="100%" id="linearGradient-1">
            <stop stop-color="#FFFFFF" offset="0%"></stop>
            <stop stop-color="#E2EDFA" offset="100%"></stop>
        </linearGradient>
        <rect id="path-2" x="0" y="0" width="534" height="198" rx="20"></rect>
        <linearGradient x1="34.9240402%" y1="57.311169%" x2="30.6281322%" y2="68.3540936%" id="linearGradient-4">
            <stop stop-color="#FFFFFF" stop-opacity="0" offset="0%"></stop>
            <stop stop-color="#FFFFFF" stop-opacity="0.706429648" offset="100%"></stop>
        </linearGradient>
        <linearGradient x1="14.6219682%" y1="73.554566%" x2="11.3999033%" y2="76.0547744%" id="linearGradient-5">
            <stop stop-color="#FFFFFF" stop-opacity="0" offset="0%"></stop>
            <stop stop-color="#FFFFFF" stop-opacity="0.642934412" offset="100%"></stop>
        </linearGradient>
        <path d="M0.241605806,0.233976149 L0.241605806,1.09867061 C0.241605806,12.6048292 9.56949733,21.9327207 21.0756559,21.9327207 L21.0756559,21.9327207 L33.8120967,21.9327207 C45.3182554,21.9327207 54.6461469,12.6048292 54.6461469,1.09867061 L54.6461469,1.09867061 L54.6461469,0.233976149 L0.241605806,0.233976149 Z" id="path-6"></path>
        <path d="M3.79766179,0.43743367 C1.81458676,0.43743367 0.207272349,2.04411228 0.207272349,4.02782311 L0.207272349,4.02782311 L0.207272349,10.1073882 L35.585992,10.1073882 L35.585992,4.02782311 C35.585992,2.04411228 33.9786776,0.43743367 31.9956026,0.43743367 L31.9956026,0.43743367 L3.79766179,0.43743367 Z" id="path-8"></path>
        <polygon id="path-10" points="0 134.790608 143.014742 134.790608 143.014742 0.242877416 0 0.242877416"></polygon>
        <polygon id="path-12" points="0.584304568 0.275939263 5.02603657 0.275939263 5.02603657 102.166194 0.584304568 102.166194"></polygon>
        <path d="M0.621181243,7.30285339 C0.621181243,11.026126 3.6393464,14.0436554 7.36261904,14.0436554 L7.36261904,14.0436554 C11.0858917,14.0436554 14.1040568,11.026126 14.1040568,7.30285339 L14.1040568,7.30285339 C14.1040568,3.57894495 11.0858917,0.560779792 7.36261904,0.560779792 L7.36261904,0.560779792 C3.6393464,0.560779792 0.621181243,3.57894495 0.621181243,7.30285339" id="path-14"></path>
        <path d="M0.136062217,0.233976149 L0.136062217,1.09867061 C0.136062217,12.6048292 9.46331794,21.9327207 20.9694765,21.9327207 L20.9694765,21.9327207 L33.7059174,21.9327207 C45.212076,21.9327207 54.5399675,12.6048292 54.5399675,1.09867061 L54.5399675,1.09867061 L54.5399675,0.233976149 L0.136062217,0.233976149 Z" id="path-16"></path>
        <filter id="filter-18">
            <feColorMatrix in="SourceGraphic" type="matrix" values="0 0 0 0 1.000000 0 0 0 0 1.000000 0 0 0 0 1.000000 0 0 0 1.000000 0"></feColorMatrix>
        </filter>
        <filter id="filter-19">
            <feColorMatrix in="SourceGraphic" type="matrix" values="0 0 0 0 1.000000 0 0 0 0 0.215686 0 0 0 0 0.462745 0 0 0 1.000000 0"></feColorMatrix>
        </filter>
        <filter id="filter-20">
            <feColorMatrix in="SourceGraphic" type="matrix" values="0 0 0 0 0.772549 0 0 0 0 0.635294 0 0 0 0 0.988235 0 0 0 1.000000 0"></feColorMatrix>
        </filter>
    </defs>
    <g id="页面-1" stroke="none" stroke-width="1" fill="none" fill-rule="evenodd">
        <g id="首页" transform="translate(-530.000000, -319.000000)">
            <g id="bg-jiaoyi" transform="translate(530.000000, 319.000000)">
                <g id="编组">
                    <mask id="mask-3" fill="white">
                        <use xlink:href="#path-2"></use>
                    </mask>
                    <use id="矩形备份-2" fill="url(#linearGradient-1)" xlink:href="#path-2"></use>
                    <ellipse id="椭圆形" fill="url(#linearGradient-4)" opacity="0.5" mask="url(#mask-3)" cx="369" cy="-14.5" rx="306" ry="195.5"></ellipse>
                    <ellipse id="椭圆形" fill="url(#linearGradient-5)" opacity="0.699999988" mask="url(#mask-3)" cx="533" cy="-27.5" rx="321" ry="297.5"></ellipse>
                </g>
                <g id="img" transform="translate(322.000000, 27.774364)">
                    <g id="编组-5" transform="translate(18.169945, 13.922421)" stroke="#10153F" stroke-linecap="round" stroke-linejoin="round" stroke-width="1.90741426">
                        <path d="M65.2693316,14.3811884 C65.2693316,14.3811884 47.2304988,7.3116754 24.149315,15.3870316 C20.6159667,16.623036 16.9223703,17.0884451 13.2269529,17.1037044 C8.29264797,17.1234143 2.96015095,15.5860385 1.20167128,11.9517785 C-3.48254951,3.28766712 6.67742036,-3.23187481 11.9595364,1.70197007" id="Stroke-1"></path>
                        <path d="M67.9516329,14.3811884 C67.9516329,14.3811884 85.9910718,7.3116754 109.071647,15.3870316 C112.604996,16.623036 116.299199,17.0884451 119.994009,17.1037044 C124.928921,17.1234143 130.261417,15.5860385 132.01929,11.9517785 C136.70351,3.28766712 126.543541,-3.23187481 121.262032,1.70197007" id="Stroke-3"></path>
                    </g>
                    <g id="编组" transform="translate(15.018073, 22.719892)">
                        <path d="M32.5618468,5.32149504 C32.5618468,7.29248977 31.4892442,9.01552065 29.8895594,9.93044369 C29.1151492,10.3793218 28.2167571,10.6323721 27.2566919,10.6323721 C26.2966267,10.6323721 25.3988704,10.3793218 24.6244602,9.93044369 C23.0241397,9.01552065 21.9521729,7.29248977 21.9521729,5.32149504 C21.9521729,2.39170674 24.3262678,0.0163401821 27.2566919,0.0163401821 C30.187116,0.0163401821 32.5618468,2.39170674 32.5618468,5.32149504" id="Fill-5" fill="#C5A2FC"></path>
                        <path d="M32.5618468,5.32149504 C32.5618468,7.29248977 31.4892442,9.01552065 29.8895594,9.93044369 C29.1151492,10.3793218 28.2167571,10.6323721 27.2566919,10.6323721 C26.2966267,10.6323721 25.3988704,10.3793218 24.6244602,9.93044369 C23.0241397,9.01552065 21.9521729,7.29248977 21.9521729,5.32149504 C21.9521729,2.39170674 24.3262678,0.0163401821 27.2566919,0.0163401821 C30.187116,0.0163401821 32.5618468,2.39170674 32.5618468,5.32149504 Z" id="Stroke-7" stroke="#10153F" stroke-width="1.90741426"></path>
                        <path d="M54.4608063,52.9646341 L0.0530861836,52.9646341 L24.6243967,9.93018937 C25.3988068,10.3790675 26.297199,10.6321178 27.2566283,10.6321178 C28.2166935,10.6321178 29.1150856,10.3790675 29.8894958,9.93018937 L54.4608063,52.9646341 Z" id="Stroke-9" stroke="#10153F" stroke-width="1.90741426" stroke-linecap="round" stroke-linejoin="round"></path>
                        <path d="M0.0553750808,52.9658421 L0.0553750808,53.8305365 C0.0553750808,65.3366952 9.38326661,74.6645867 20.8894252,74.6645867 L33.6252302,74.6645867 C45.1313888,74.6645867 54.4592804,65.3366952 54.4592804,53.8305365 L54.4592804,52.9658421 L0.0553750808,52.9658421 Z" id="Fill-11" fill="#FF838F"></path>
                    </g>
                    <g id="编组" transform="translate(14.831970, 75.451949)">
                        <mask id="mask-7" fill="white">
                            <use xlink:href="#path-6"></use>
                        </mask>
                        <g id="Clip-14"></g>
                        <path d="M47.3130928,0.233785408 C46.9881965,11.4551035 37.7950956,20.4549198 26.4949378,20.4549198 L13.9492384,20.4549198 C16.3335062,21.4048121 18.9320402,21.93253 21.655192,21.93253 L34.390997,21.93253 C45.8971556,21.93253 55.2250471,12.6046385 55.2250471,1.09847987 L55.2250471,0.233785408 L47.3130928,0.233785408 Z" id="Fill-13" fill="#FF3776" mask="url(#mask-7)"></path>
                    </g>
                    <g id="编组" transform="translate(14.831970, 75.451949)">
                        <path d="M0.241478645,0.233785408 L0.241478645,1.09847987 C0.241478645,12.6046385 9.56937017,21.93253 21.0755288,21.93253 L33.8113338,21.93253 C45.3174924,21.93253 54.6453839,12.6046385 54.6453839,1.09847987 L54.6453839,0.233785408 L0.241478645,0.233785408 Z" id="Stroke-15" stroke="#10153F" stroke-width="1.90741426" stroke-linecap="round" stroke-linejoin="round"></path>
                        <path d="M49.8001066,58.0709092 L49.8001066,64.15111 L85.1788263,64.15111 L85.1788263,58.0709092 C85.1788263,56.0878342 83.5708761,54.4811556 81.5884369,54.4811556 L53.3898603,54.4811556 C51.4074211,54.4811556 49.8001066,56.0878342 49.8001066,58.0709092" id="Fill-17" fill="#C4F5F6"></path>
                    </g>
                    <g id="编组" transform="translate(64.424741, 129.495353)">
                        <mask id="mask-9" fill="white">
                            <use xlink:href="#path-8"></use>
                        </mask>
                        <g id="Clip-20"></g>
                        <polygon id="Fill-19" fill="#00E2D1" mask="url(#mask-9)" points="-6.83871592 13.3518998 47.8322274 13.3518998 47.8322274 6.50046779 -6.83871592 6.50046779"></polygon>
                    </g>
                    <g id="编组" transform="translate(11.017141, 8.056645)">
                        <path d="M53.6149352,125.466213 L53.6149352,131.546414 L88.9936548,131.546414 L88.9936548,125.466213 C88.9936548,123.483138 87.3857046,121.876459 85.4032654,121.876459 L57.2046888,121.876459 C55.2222496,121.876459 53.6149352,123.483138 53.6149352,125.466213 Z" id="Stroke-21" stroke="#10153F" stroke-width="1.90741426"></path>
                        <mask id="mask-11" fill="white">
                            <use xlink:href="#path-10"></use>
                        </mask>
                        <g id="Clip-24"></g>
                        <polygon id="Fill-23" fill="#86ECEE" mask="url(#mask-11)" points="64.4642439 121.876141 78.1442189 121.876141 78.1442189 19.9858866 64.4642439 19.9858866"></polygon>
                    </g>
                    <g id="编组" transform="translate(84.134688, 27.766593)">
                        <mask id="mask-13" fill="white">
                            <use xlink:href="#path-12"></use>
                        </mask>
                        <g id="Clip-26"></g>
                        <polygon id="Fill-25" fill="#00E2D1" mask="url(#mask-13)" points="0.584304568 105.215514 10.1900428 105.215514 10.1900428 -3.44606176 0.584304568 -3.44606176"></polygon>
                    </g>
                    <g id="编组" transform="translate(75.233421, 8.692450)">
                        <polygon id="Stroke-27" stroke="#10153F" stroke-width="1.90741426" points="0.247963854 121.240337 13.9279389 121.240337 13.9279389 19.3500818 0.247963854 19.3500818"></polygon>
                        <path d="M14.7398616,7.30278981 C14.7398616,11.0254266 11.7216964,14.0442276 7.99842379,14.0442276 C4.27515116,14.0442276 1.256986,11.0254266 1.256986,7.30278981 C1.256986,3.57951718 4.27515116,0.560716211 7.99842379,0.560716211 C11.7216964,0.560716211 14.7398616,3.57951718 14.7398616,7.30278981" id="Fill-29" fill="#FFCC7D"></path>
                    </g>
                    <g id="编组" transform="translate(75.869226, 8.692450)">
                        <mask id="mask-15" fill="white">
                            <use xlink:href="#path-14"></use>
                        </mask>
                        <g id="Clip-31"></g>
                        <path d="M9.05239733,0.638920196 C9.78993084,1.71978828 10.2222781,3.02509543 10.2222781,4.43276716 C10.2222781,8.15603979 7.20411291,11.1742049 3.48084028,11.1742049 C2.9887274,11.1742049 2.51060223,11.1182541 2.04837217,11.0184328 C3.26275925,12.7980503 5.30432831,13.9660236 7.62056502,13.9660236 C11.3438377,13.9660236 14.3620028,10.9478585 14.3620028,7.22458582 C14.3620028,3.99342607 12.0870934,1.29634231 9.05239733,0.638920196" id="Fill-30" fill="#FFB24D" mask="url(#mask-15)"></path>
                    </g>
                    <g id="编组" transform="translate(75.869226, 8.692450)">
                        <path d="M14.1040568,7.30278981 C14.1040568,11.0254266 11.0858917,14.0442276 7.36261904,14.0442276 C3.6393464,14.0442276 0.621181243,11.0254266 0.621181243,7.30278981 C0.621181243,3.57951718 3.6393464,0.560716211 7.36261904,0.560716211 C11.0858917,0.560716211 14.1040568,3.57951718 14.1040568,7.30278981 Z" id="Stroke-32" stroke="#10153F" stroke-width="1.90741426"></path>
                        <path d="M75.5228595,66.9920764 L21.1151394,66.9920764 L45.6858141,23.9576317 C46.4608601,24.4065099 47.3592522,24.6595602 48.3186816,24.6595602 C49.2787467,24.6595602 50.1771389,24.4065099 50.951549,23.9576317 L75.5228595,66.9920764 Z" id="Stroke-34" stroke="#10153F" stroke-width="1.90741426" stroke-linecap="round" stroke-linejoin="round"></path>
                        <path d="M21.1174919,66.9932844 L21.1174919,67.8579789 C21.1174919,79.3641375 30.4447476,88.692029 41.951542,88.692029 L54.687347,88.692029 C66.1935056,88.692029 75.5213972,79.3641375 75.5213972,67.8579789 L75.5213972,66.9932844 L21.1174919,66.9932844 Z" id="Fill-36" fill="#FF838F"></path>
                    </g>
                    <g id="编组" transform="translate(96.850783, 75.451949)">
                        <mask id="mask-17" fill="white">
                            <use xlink:href="#path-16"></use>
                        </mask>
                        <g id="Clip-39"></g>
                        <path d="M47.2075492,0.233785408 C46.8820171,11.4551035 37.689552,20.4549198 26.3887584,20.4549198 L13.8436948,20.4549198 C16.2279626,21.4048121 18.8264966,21.93253 21.5496484,21.93253 L34.2854534,21.93253 C45.791612,21.93253 55.1195035,12.6046385 55.1195035,1.09847987 L55.1195035,0.233785408 L47.2075492,0.233785408 Z" id="Fill-38" fill="#FF3776" mask="url(#mask-17)"></path>
                    </g>
                    <g id="编组" transform="translate(16.103579, 22.680155)">
                        <path d="M80.8831387,53.0055799 L80.8831387,53.8702743 C80.8831387,65.376433 90.2103944,74.7043245 101.717189,74.7043245 L114.452994,74.7043245 C125.959152,74.7043245 135.287044,65.376433 135.287044,53.8702743 L135.287044,53.0055799 L80.8831387,53.0055799 Z" id="Stroke-40" stroke="#10153F" stroke-width="1.90741426" stroke-linecap="round" stroke-linejoin="round"></path>
                        <path d="M113.390818,5.36123284 C113.390818,7.33222757 112.318852,9.05525845 110.718531,9.97018149 C109.944121,10.4190596 109.046364,10.6721099 108.086299,10.6721099 C107.126234,10.6721099 106.227842,10.4190596 105.453432,9.97018149 C103.853747,9.05525845 102.775422,7.33222757 102.775422,5.36123284 C102.775422,2.43144454 105.155875,0.0560779792 108.086299,0.0560779792 C111.016723,0.0560779792 113.390818,2.43144454 113.390818,5.36123284" id="Fill-42" fill="#C5A2FC"></path>
                        <path d="M113.390818,5.36123284 C113.390818,7.33222757 112.318852,9.05525845 110.718531,9.97018149 C109.944121,10.4190596 109.046364,10.6721099 108.086299,10.6721099 C107.126234,10.6721099 106.227842,10.4190596 105.453432,9.97018149 C103.853747,9.05525845 102.775422,7.33222757 102.775422,5.36123284 C102.775422,2.43144454 105.155875,0.0560779792 108.086299,0.0560779792 C111.016723,0.0560779792 113.390818,2.43144454 113.390818,5.36123284 Z" id="Stroke-44" stroke="#10153F" stroke-width="1.90741426"></path>
                        <path d="M109.042677,0.405198369 C109.591376,1.20885558 109.913094,2.18036524 109.913094,3.22626406 C109.913094,5.99646536 107.667431,8.24085614 104.898501,8.24085614 C104.532914,8.24085614 104.176863,8.19952883 103.833528,8.12577548 C104.736371,9.44888517 106.255309,10.3180303 107.977704,10.3180303 C110.747269,10.3180303 112.99166,8.07300369 112.99166,5.30343818 C112.99166,2.90009622 111.299784,0.894132224 109.042677,0.405198369" id="Fill-46" fill="#10153F" opacity="0.300000012"></path>
                        <path d="M26.8018407,0.405198369 C27.3505402,1.20885558 27.6722574,2.18036524 27.6722574,3.22626406 C27.6722574,5.99646536 25.426595,8.24085614 22.6576653,8.24085614 C22.2920776,8.24085614 21.9360269,8.19952883 21.5926924,8.12577548 C22.4955351,9.44888517 24.0144727,10.3180303 25.7368677,10.3180303 C28.5064332,10.3180303 30.750824,8.07300369 30.750824,5.30343818 C30.750824,2.90009622 29.0589476,0.894132224 26.8018407,0.405198369" id="Fill-48" fill="#10153F" opacity="0.300000012"></path>
                        <g transform="translate(0.000000, 116.352270)">
                            <line x1="0.256674379" y1="0.570316863" x2="136.974406" y2="0.570316863" id="Fill-50" fill="#FFA4A4"></line>
                            <line x1="0.256674379" y1="0.570316863" x2="136.974406" y2="0.570316863" id="Stroke-52" stroke="#10153F" stroke-width="1.90741426" stroke-linecap="round" stroke-linejoin="round"></line>
                        </g>
                    </g>
                    <g id="编组" transform="translate(32.305247, 51.942978)">
                        <circle id="椭圆形" fill="#F4BB0B" cx="10.6440528" cy="10.6440528" r="10.6440528"></circle>
                        <g filter="url(#filter-18)" id="BNB">
                            <g transform="translate(3.870565, 3.870565)">
                                <path d="M6.09545088,7.74112929 L4.46955483,6.28974151 L6.09545088,4.83820581 L7.72134694,6.28974151 L6.09545088,7.74112929 Z M9.7903152,6.28974151 L9.78343879,6.29573257 L11.2914419,7.6419441 L12.8061556,6.28966756 L11.2809201,4.92799762 L9.77299992,6.27420916 L9.7903152,6.28974151 Z" id="形状" fill="#F4BB0B" fill-rule="nonzero"></path>
                                <path d="M4.22539125,5.68178581 L6.72820279,3.04405574 L9.26783089,5.72058704 L10.7119285,4.1986428 L6.72820279,0 L2.78121432,4.15975796 L4.22539125,5.68178581 Z M9.27782849,7.8158527 L6.72820279,10.5029205 L4.20119072,7.83951809 L2.75709314,9.36162959 L6.72820279,13.5469763 L10.7220054,9.33788056 L9.27782849,7.8158527 Z M3.1896083,6.77357175 L3.24292883,6.71729328 L1.79867255,5.19518178 L0.301254437,6.77357175 L1.77455136,8.32628938 L3.21864894,6.80434513 L3.1896083,6.77357175 Z" id="形状" fill="#F4BB0B" fill-rule="nonzero"></path>
                            </g>
                        </g>
                    </g>
                    <g id="编组" transform="translate(114.051572, 51.942978)" fill-rule="nonzero">
                        <g id="ETH-(1)">
                            <path d="M0,10.6440528 C0,16.5226449 4.7654607,21.2881056 10.6440528,21.2881056 C16.5226449,21.2881056 21.2881056,16.5226449 21.2881056,10.6440528 C21.2881056,4.7654607 16.5226449,0 10.6440528,0 C4.7654607,0 0,4.7654607 0,10.6440528 Z" id="路径" fill="#627EEA"></path>
                            <g id="编组" transform="translate(5.805847, 2.902923)" fill="#FFFFFF">
                                <polygon id="路径" fill-opacity="0.602" points="4.98780313 2.66425779e-14 4.98780313 5.90035326 9.97536973 8.12945443"></polygon>
                                <polygon id="路径" points="4.98780313 -2.75020159e-14 -7.47711058e-14 8.12945443 4.98780313 5.9012994"></polygon>
                                <polygon id="路径" fill-opacity="0.602" points="4.98780313 11.9532713 4.98780313 15.9625311 9.97891775 9.05808892"></polygon>
                                <polygon id="路径" points="4.98780313 15.9625311 4.98780313 11.9532713 -2.58690837e-13 9.05690624 4.98803967 15.961585"></polygon>
                                <polygon id="路径" fill-opacity="0.2" points="4.98780313 11.0255829 9.97536973 8.12945443 4.98780313 5.90224554"></polygon>
                                <polygon id="路径" fill-opacity="0.602" points="0.000236539126 8.12945443 4.98780313 11.0255829 4.98780313 5.90224554 -7.47711058e-14 8.1285083"></polygon>
                            </g>
                        </g>
                    </g>
                    <circle id="椭圆形" stroke="#FFB24D" stroke-width="0.851524222" cx="156.202021" cy="50.6656912" r="2.55457267"></circle>
                    <circle id="椭圆形备份-2" stroke="#00E2D1" stroke-width="0.851524222" cx="48.9099693" cy="9.79252856" r="2.55457267"></circle>
                    <g filter="url(#filter-19)" id="编组-12">
                        <g transform="translate(113.200048, -0.000000)">
                            <rect id="矩形" fill="#D8D8D8" x="0" y="3.40609689" width="6.81219378" height="1" rx="0.425762111"></rect>
                            <rect id="矩形" fill="#D8D8D8" transform="translate(3.406097, 3.831859) rotate(-270.000000) translate(-3.406097, -3.831859) " x="0" y="3.40609689" width="6.81219378" height="1" rx="0.425762111"></rect>
                        </g>
                    </g>
                    <g filter="url(#filter-20)" id="编组-12备份">
                        <g transform="translate(5.855502, 46.593363) rotate(-315.000000) translate(-5.855502, -46.593363) translate(2.355502, 42.593363)">
                            <rect id="矩形" fill="#D8D8D8" x="0" y="3.40609689" width="6.81219378" height="1" rx="0.425762111"></rect>
                            <rect id="矩形" fill="#D8D8D8" transform="translate(3.406097, 3.831859) rotate(-270.000000) translate(-3.406097, -3.831859) " x="0" y="3.40609689" width="6.81219378" height="1" rx="0.425762111"></rect>
                        </g>
                    </g>
                </g>
            </g>
        </g>
    </g>
</svg>