<?xml version="1.0" encoding="UTF-8"?>
<svg width="20px" height="20px" viewBox="0 0 20 20" version="1.1" xmlns="http://www.w3.org/2000/svg" xmlns:xlink="http://www.w3.org/1999/xlink">
    <title>connect</title>
    <defs>
        <filter id="filter-1">
            <feColorMatrix in="SourceGraphic" type="matrix" values="0 0 0 0 0.000000 0 0 0 0 0.462745 0 0 0 0 1.000000 0 0 0 1.000000 0"></feColorMatrix>
        </filter>
    </defs>
    <g id="页面-1" stroke="none" stroke-width="1" fill="none" fill-rule="evenodd">
        <g id="首页" transform="translate(-1718.000000, -44.000000)">
            <g id="钱包" transform="translate(1694.000000, 32.000000)">
                <g id="connect" transform="translate(24.000000, 11.000000)" filter="url(#filter-1)">
                    <g transform="translate(0.000000, 1.000000)">
                        <path d="M4,0 C1.79086,0 0,1.79086 0,4 L0,6 L0,16 C0,18.2091 1.79086,20 4,20 L16,20 C18.2091,20 20,18.2091 20,16 L20,8 C20,5.79086 18.2091,4 16,4 C16,1.79086 14.2091,0 12,0 L4,0 Z M14,4 L2,4 C2,2.89543 2.89543,2 4,2 L12,2 C13.1046,2 14,2.89543 14,4 Z M2,16 L2,6 L16,6 C17.1046,6 18,6.89543 18,8 L18,16 C18,17.1046 17.1046,18 16,18 L4,18 C2.89543,18 2,17.1046 2,16 Z M12,11 C11.4477,11 11,11.4477 11,12 C11,12.5523 11.4477,13 12,13 L15,13 C15.5523,13 16,12.5523 16,12 C16,11.4477 15.5523,11 15,11 L12,11 Z" id="形状" fill="#29D9E4"></path>
                    </g>
                </g>
            </g>
        </g>
    </g>
</svg>