<?xml version="1.0" encoding="UTF-8"?>
<svg width="176px" height="293px" viewBox="0 0 176 293" version="1.1" xmlns="http://www.w3.org/2000/svg" xmlns:xlink="http://www.w3.org/1999/xlink">
    <title>gao</title>
    <defs>
        <filter x="-60.0%" y="-115.4%" width="220.0%" height="330.8%" filterUnits="objectBoundingBox" id="filter-1">
            <feGaussianBlur stdDeviation="13.1343284" in="SourceGraphic"></feGaussianBlur>
        </filter>
        <linearGradient x1="50%" y1="11.1415787%" x2="50%" y2="100%" id="linearGradient-2">
            <stop stop-color="#EDF3FA" offset="0%"></stop>
            <stop stop-color="#FFFFFF" stop-opacity="0" offset="100%"></stop>
        </linearGradient>
        <linearGradient x1="50%" y1="11.1415787%" x2="50%" y2="100%" id="linearGradient-3">
            <stop stop-color="#EDF3FA" offset="0%"></stop>
            <stop stop-color="#FFFFFF" stop-opacity="0" offset="100%"></stop>
        </linearGradient>
        <linearGradient x1="44.6997029%" y1="9.6993605%" x2="104.213648%" y2="71.6639367%" id="linearGradient-4">
            <stop stop-color="#0CA3EE" offset="0%"></stop>
            <stop stop-color="#0099E6" offset="100%"></stop>
        </linearGradient>
        <path d="M11.5895832,7.93905673 L37.8914389,17.7481523 C41.9694069,19.2690024 44.0423605,23.8077411 42.5215105,27.885709 C42.3555949,28.330591 42.149812,28.7595678 41.906673,29.1674052 L32.7149024,44.5855254 C32.0071307,45.7727297 30.5004398,46.2083862 29.268302,45.5821027 L23.075584,42.4344051 C22.4377644,42.1102077 22.1767679,41.3351429 22.4885646,40.6911703 L28.0761859,29.150718 L28.0761859,29.150718 L7.76801554,22.7157302 L10.3091787,15.2853841 L11.5895832,7.93905673 Z" id="path-5"></path>
        <path d="M12.6694226,6.42686105 L13.3448467,8.87673905 C14.6730517,13.6943642 16.2751263,18.4322596 18.1432558,23.0673143 L33.3819116,60.8762578 C33.9183761,62.2072911 35.4237475,62.8614574 36.7628482,62.3454599 L43.0966053,59.9048644 C44.3160703,59.4349662 45.004657,58.1400943 44.7124437,56.8663162 L32.6401777,4.242471 L32.6401777,4.242471 L12.6694226,6.42686105 Z" id="path-7"></path>
        <linearGradient x1="39.0690113%" y1="95.80525%" x2="54.523245%" y2="36.6974504%" id="linearGradient-9">
            <stop stop-color="#2DE0C3" offset="0%"></stop>
            <stop stop-color="#30E0A7" offset="100%"></stop>
        </linearGradient>
        <path d="M13.561275,0.0783348817 C17.8208979,2.38057407 20.523484,6.7856084 20.6460412,11.6260291 L21.1109142,29.9862841 L21.1109142,29.9862841 L0.0177709477,29.1541788 L3.06010532,10.066953 C6.55002986,4.02927129 8.52675441,0.982980074 8.99027898,0.928079319 C11.2556427,0.659765211 12.779308,0.376517065 13.561275,0.0783348817 Z" id="path-10"></path>
        <path d="M0.00112226101,-4.77261724e-14 L0.861804636,3.35323364 L1.76609491,3.76525185 C2.98473969,4.32049817 4.42605417,3.92772406 5.19451079,2.83097068 L5.19451079,2.83097068 L5.19451079,2.83097068 L4.72731554,-4.77261724e-14 L0.00112226101,-4.77261724e-14 Z" id="path-12"></path>
        <linearGradient x1="33.0195455%" y1="30.9616457%" x2="50%" y2="100%" id="linearGradient-14">
            <stop stop-color="#FFE9E3" offset="0%"></stop>
            <stop stop-color="#FFDCD4" offset="100%"></stop>
        </linearGradient>
        <polygon id="path-15" points="10.6798574 2.72242883 17.8747058 10.4899744 11.9879027 18.9095715 3.39147295 7.14656124"></polygon>
        <linearGradient x1="34.2437235%" y1="68.2753251%" x2="88.9569272%" y2="68.2753251%" id="linearGradient-17">
            <stop stop-color="#FFB80D" offset="0%"></stop>
            <stop stop-color="#FF9D0D" offset="100%"></stop>
        </linearGradient>
        <linearGradient x1="50.752869%" y1="68.2753251%" x2="55.9314071%" y2="73.313153%" id="linearGradient-18">
            <stop stop-color="#FFB80D" offset="0%"></stop>
            <stop stop-color="#FF9D0D" offset="100%"></stop>
        </linearGradient>
        <path d="M7.286769,2.11514056 L10.5913069,2.08831043 C13.2333044,2.06685959 15.3924558,4.19123236 15.4139067,6.83322981 C15.4147659,6.9390577 15.4121132,7.04488496 15.4059528,7.15053689 L15.2396012,10.0035258 C15.1201689,12.0518332 13.7078665,13.7958935 11.7291546,14.3385966 L8.74658174,15.1566295 C6.12003348,15.8770153 3.40680739,14.3317652 2.68642165,11.705217 C2.56600382,11.2661699 2.50696287,10.8125627 2.51098094,10.3573192 L2.54187828,6.85667798 C2.56491801,4.24629705 4.67637243,2.13633483 7.286769,2.11514056 Z" id="path-19"></path>
        <linearGradient x1="71.8651852%" y1="50%" x2="9.24742606%" y2="22.1360144%" id="linearGradient-21">
            <stop stop-color="#AB7FFF" offset="0%"></stop>
            <stop stop-color="#D9C4FF" offset="100%"></stop>
        </linearGradient>
        <linearGradient x1="56.0623257%" y1="69.3944879%" x2="81.7108329%" y2="103.707542%" id="linearGradient-22">
            <stop stop-color="#FFB80D" offset="0%"></stop>
            <stop stop-color="#FF9D0D" offset="100%"></stop>
        </linearGradient>
        <linearGradient x1="70.6048274%" y1="92.6694006%" x2="50%" y2="50%" id="linearGradient-23">
            <stop stop-color="#2DE0C3" offset="0%"></stop>
            <stop stop-color="#30E0A7" offset="100%"></stop>
        </linearGradient>
    </defs>
    <g id="页面-1" stroke="none" stroke-width="1" fill="none" fill-rule="evenodd">
        <g id="首页" transform="translate(-32.000000, -728.000000)">
            <g id="gao" transform="translate(32.000000, 728.000000)">
                <rect id="矩形" fill="#F5F6FA" x="0" y="103" width="176" height="190" rx="20"></rect>
                <ellipse id="椭圆形" fill="#DEDEEA" filter="url(#filter-1)" cx="88" cy="135.149406" rx="32.8358209" ry="17.0746269"></ellipse>
                <g id="编组-17" transform="translate(80.171642, 72.000000) scale(-1, 1) translate(-80.171642, -72.000000) translate(5.671642, 0.000000)">
                    <g id="背景-不动" transform="translate(10.194030, 18.253884)">
                        <path d="M12.909548,0 L75.5576671,0 C78.4592228,-5.33007135e-16 80.8113984,2.35217564 80.8113984,5.25373134 L80.8113984,118.141207 L80.8113984,118.141207 L7.65581669,118.141207 L7.65581669,5.25373134 C7.65581669,2.35217564 10.0079923,-6.57242022e-15 12.909548,0 Z" id="矩形" fill="url(#linearGradient-2)" opacity="0.600000024"></path>
                        <path d="M5.25373134,0 L67.9018504,0 C70.8034061,-5.33007135e-16 73.1555817,2.35217564 73.1555817,5.25373134 L73.1555817,118.141207 L73.1555817,118.141207 L0,118.141207 L0,5.25373134 C-3.5533809e-16,2.35217564 2.35217564,-6.57242022e-15 5.25373134,0 Z" id="矩形" fill="url(#linearGradient-2)"></path>
                        <path d="M110.733872,45.8965839 L129.99903,45.8965839 C132.900586,45.8965839 135.252762,48.2487595 135.252762,51.1503152 L135.252762,90.0932943 L135.252762,90.0932943 L105.480141,90.0932943 L105.480141,51.1503152 C105.480141,48.2487595 107.832317,45.8965839 110.733872,45.8965839 Z" id="矩形备份-2" fill="url(#linearGradient-3)" opacity="0.600000024"></path>
                        <path d="M105.629995,45.8965839 L124.895152,45.8965839 C127.796708,45.8965839 130.148884,48.2487595 130.148884,51.1503152 L130.148884,90.0932943 L130.148884,90.0932943 L100.376263,90.0932943 L100.376263,51.1503152 C100.376263,48.2487595 102.728439,45.8965839 105.629995,45.8965839 Z" id="矩形备份-3" fill="url(#linearGradient-3)"></path>
                        <path d="M18.7891454,19.548545 L55.2170827,19.548545 C56.6678605,19.548545 57.8439483,20.7246328 57.8439483,22.1754107 L57.8439483,27.1209202 C57.8439483,28.571698 56.6678605,29.7477858 55.2170827,29.7477858 L18.7891454,29.7477858 C17.3383675,29.7477858 16.1622797,28.571698 16.1622797,27.1209202 L16.1622797,22.1754107 C16.1622797,20.7246328 17.3383675,19.548545 18.7891454,19.548545 Z" id="矩形" fill="#FFFFFF" opacity="0.699999988"></path>
                        <path d="M18.7891454,41.6469002 L55.2170827,41.6469002 C56.6678605,41.6469002 57.8439483,42.822988 57.8439483,44.2737659 L57.8439483,49.2192754 C57.8439483,50.6700532 56.6678605,51.846141 55.2170827,51.846141 L18.7891454,51.846141 C17.3383675,51.846141 16.1622797,50.6700532 16.1622797,49.2192754 L16.1622797,44.2737659 C16.1622797,42.822988 17.3383675,41.6469002 18.7891454,41.6469002 Z" id="矩形备份" fill="#FFFFFF" opacity="0.800000012"></path>
                    </g>
                    <g id="后腿-动" transform="translate(91.662585, 86.288433) scale(-1, 1) rotate(37.000000) translate(-91.662585, -86.288433) translate(64.162585, 58.788433)">
                        <path d="M8.13140465,35.0189788 L2.60793149,31.9020216 C2.37321861,31.7695705 2.08546801,31.7737408 1.85468468,31.9129383 C1.65102756,32.0357745 1.58541559,32.3006051 1.70813624,32.504454 C1.70907237,32.506009 1.7100183,32.507558 1.71097399,32.5091011 L6.39032246,40.0642076 C6.59848486,40.4002991 6.90070275,40.6677756 7.25943906,40.8334153 C7.60033233,40.9908162 7.99891394,40.9564192 8.30786082,40.742938 L9.69820866,39.7822126 L11.1513352,38.9700237 C11.7475403,38.6367896 11.9888417,37.902218 11.7063811,37.2803486 L10.8150975,35.318086 C10.5288968,34.6879824 9.80287522,34.3880554 9.15540954,34.6324517 L8.13140465,35.0189788 L8.13140465,35.0189788 Z" id="路径" fill="#15102A" transform="translate(6.926190, 36.368362) scale(-1, 1) rotate(-160.000000) translate(-6.926190, -36.368362) "></path>
                        <mask id="mask-6" fill="white">
                            <use xlink:href="#path-5"></use>
                        </mask>
                        <use id="蒙版" fill="url(#linearGradient-4)" transform="translate(27.256910, 27.316933) rotate(53.000000) translate(-27.256910, -27.316933) " xlink:href="#path-5"></use>
                    </g>
                    <g id="前景-不动" transform="translate(80.019592, 77.845518) scale(-1, 1) rotate(30.000000) translate(-80.019592, -77.845518) translate(27.019592, 32.845518)">
                        <g id="路径-11" transform="translate(40.232865, 21.188206)">
                            <mask id="mask-8" fill="white">
                                <use xlink:href="#path-7"></use>
                            </mask>
                            <use id="蒙版" fill="#16B2FF" transform="translate(28.945540, 33.759040) rotate(-30.000000) translate(-28.945540, -33.759040) " xlink:href="#path-7"></use>
                            <path d="M27.0629385,13.0330583 C14.4307833,15.3137374 7.20867275,16.4540769 5.39660687,16.4540769 C3.584541,16.4540769 5.68287055,14.4649729 11.6915955,10.4867649 L18.4444892,7.98979685 L27.0629385,13.0330583 Z" fill="#00A0E6" mask="url(#mask-8)" transform="translate(15.914883, 12.221937) rotate(-3.000000) translate(-15.914883, -12.221937) "></path>
                        </g>
                        <g id="路径-6备份-+-路径-6备份-3-+-路径-6-+-路径-6备份-2-+-路径-6备份-蒙版" transform="translate(44.952036, 22.294140) scale(-1, 1) rotate(24.000000) translate(-44.952036, -22.294140) translate(33.952036, 7.294140)">
                            <mask id="mask-11" fill="white">
                                <use xlink:href="#path-10"></use>
                            </mask>
                            <use id="形状结合" fill="url(#linearGradient-9)" xlink:href="#path-10"></use>
                        </g>
                        <g id="路径-2" transform="translate(38.454146, 8.861306) scale(-1, 1) rotate(26.000000) translate(-38.454146, -8.861306) translate(35.454146, 6.361306)">
                            <mask id="mask-13" fill="white">
                                <use xlink:href="#path-12"></use>
                            </mask>
                            <use id="蒙版" fill="#FFDCD4" xlink:href="#path-12"></use>
                            <path d="M0.432766915,2.18572432 C2.09898514,2.82211726 3.56198117,2.49812743 4.821755,1.21375481 C6.08152884,-0.0706177966 6.22883279,-0.586291103 5.26366684,-0.333265106 L0.432766915,-0.168700873 L0.0702783104,1.21375481 L0.432766915,2.18572432 Z" fill="#FCC3B6" mask="url(#mask-13)"></path>
                        </g>
                        <g id="编组" transform="translate(9.181095, 34.720920) scale(-1, 1) rotate(30.000000) translate(-9.181095, -34.720920) translate(2.365456, 28.331259)"></g>
                        <path d="M99.395281,73.3225015 L94.8491303,68.8097831 C94.6144174,68.6773321 94.3266668,68.6815024 94.0958835,68.8206998 C93.8922264,68.943536 93.8266144,69.2083667 93.9493351,69.4122156 C93.9502712,69.4137705 93.9512171,69.4153196 93.9521728,69.4168626 L97.6541988,78.3677303 C97.8623612,78.7038218 98.1645791,78.9712984 98.5233154,79.136938 C98.8642087,79.2943389 99.2627903,79.2599419 99.5717372,79.0464607 L100.962085,78.0857353 L102.889127,77.2295111 C103.552026,76.9349713 103.85064,76.1588137 103.5561,75.4959144 C103.525339,75.4266823 103.488646,75.3602414 103.44643,75.297335 L102.150468,73.3661785 C101.810568,72.8596818 101.166695,72.6538528 100.596021,72.8692631 L99.395281,73.3225015 L99.395281,73.3225015 Z" id="路径" fill="#15102A" transform="translate(99.102372, 73.974005) scale(-1, 1) rotate(-13.000000) translate(-99.102372, -73.974005) "></path>
                        <g id="大臂" transform="translate(52.861041, 12.376409) scale(-1, 1) rotate(-6.000000) translate(-52.861041, -12.376409) translate(41.861041, 1.376409)">
                            <mask id="mask-16" fill="white">
                                <use xlink:href="#path-15"></use>
                            </mask>
                            <use id="蒙版" fill="url(#linearGradient-14)" transform="translate(10.633089, 10.816000) rotate(-34.000000) translate(-10.633089, -10.816000) " xlink:href="#path-15"></use>
                            <polygon id="路径-19" fill="#FCC3B6" mask="url(#mask-16)" transform="translate(14.681755, 8.560459) rotate(83.000000) translate(-14.681755, -8.560459) " points="9.75024729 10.7456041 19.6132618 7.66759794 11.832355 6.37531427"></polygon>
                        </g>
                    </g>
                    <g id="手臂-动" transform="translate(55.496605, 31.835085) scale(-1, 1) rotate(28.000000) translate(-55.496605, -31.835085) translate(36.996605, 5.835085)">
                        <g id="编组-2" transform="translate(17.784687, 17.737193) scale(-1, 1) rotate(33.000000) translate(-17.784687, -17.737193) translate(5.284687, 4.737193)">
                            <path d="M18.7650353,8.71899385 L4.12244732,2.9746633 C3.44716321,2.70974734 2.68498047,3.04241646 2.42006451,3.71770057 C2.3567922,3.87898488 2.32605389,4.05119359 2.32961998,4.22440818 L2.61717268,18.1916132 C2.63210361,18.9168485 3.23212684,19.4926639 3.95736209,19.4777329 C4.09139435,19.4749735 4.22421418,19.4517103 4.3512056,19.4087517 L19.7568147,14.1973497 L19.7568147,14.1973497 L18.7650353,8.71899385 Z" id="路径-29" fill="url(#linearGradient-17)" transform="translate(11.022949, 11.119147) rotate(17.000000) translate(-11.022949, -11.119147) "></path>
                            <path d="M18.9958594,11.6089082 L20.9576955,11.4710774 C22.4049061,11.3694021 23.6605262,12.4601739 23.7622016,13.9073845 C23.7683586,13.9950214 23.7701153,14.082912 23.7674652,14.1707249 L23.7379106,15.1500243 C23.694549,16.5868218 22.5043992,17.7219311 21.0671592,17.6972622 L18.8623506,17.6594185 L18.8623506,17.6594185 L18.9958594,11.6089082 Z" id="矩形" fill="#F58C00" transform="translate(21.358716, 14.504640) rotate(17.000000) translate(-21.358716, -14.504640) "></path>
                            <path d="M16.8642518,8.85992814 L17.6356031,8.85992814 C18.3609921,8.85992814 18.949036,9.44797205 18.949036,10.173361 C18.949036,10.2107445 18.9474399,10.2481111 18.9442522,10.2853585 L17.7991182,23.6658238 C17.7409656,24.3453152 17.1724443,24.8672592 16.4904691,24.8672592 L15.7191178,24.8672592 C14.9937289,24.8672592 14.405685,24.2792153 14.405685,23.5538263 C14.405685,23.5164428 14.407281,23.4790762 14.4104687,23.4418288 L15.5556028,10.0613635 C15.6137554,9.38187214 16.1822766,8.85992814 16.8642518,8.85992814 Z" id="矩形" fill="url(#linearGradient-18)" transform="translate(16.677360, 16.863594) rotate(17.000000) translate(-16.677360, -16.863594) "></path>
                        </g>
                        <path d="M13.8464479,43.0839074 C15.1694514,44.9250554 17.734503,45.3450944 19.575651,44.0220909 C19.6050219,44.0009857 19.6341125,43.9794933 19.6629154,43.9576193 L34.1479585,32.9571141 L34.1479585,32.9571141 L35.9104307,28.3031135 L30.8984501,26.6168082 L14.8909134,37.3182996 C13.0199494,38.569092 12.5172009,41.0997756 13.7679933,42.9707396 C13.7935056,43.0089014 13.8196608,43.0466293 13.8464479,43.0839074 Z" id="路径-18" fill="#FFDCD4" transform="translate(23.648601, 36.561853) rotate(-72.000000) translate(-23.648601, -36.561853) "></path>
                        <path d="M21.6930466,22.5284677 L24.5918979,23.7462356 C25.1803374,23.993431 25.4569703,24.6708469 25.2097749,25.2592864 C25.2086596,25.2619414 25.2075344,25.2645922 25.2063992,25.2672388 C24.9523708,25.859505 24.2681314,26.135945 23.6739828,25.8863512 L20.7751315,24.6685833 C20.186692,24.4213879 19.910059,23.743972 20.1572544,23.1555325 C20.1583698,23.1528775 20.159495,23.1502267 20.1606302,23.1475801 C20.4146585,22.5553139 21.098898,22.278874 21.6930466,22.5284677 Z" id="矩形" fill="#FFDCD4" transform="translate(22.683515, 24.207409) scale(-1, 1) rotate(6.000000) translate(-22.683515, -24.207409) "></path>
                        <path d="M20.5717174,20.8442753 L22.8491833,21.960463 C23.430911,22.2455682 23.703071,22.9242088 23.4795306,23.5322563 C23.2836445,24.0650819 22.692907,24.3382254 22.1600815,24.1423393 C22.1268226,24.1301121 22.0942182,24.1161733 22.0623989,24.1005786 L19.7849331,22.9843909 C19.2032053,22.6992857 18.9310453,22.0206451 19.1545857,21.4125976 C19.3504718,20.879772 19.9412093,20.6066285 20.4740349,20.8025146 C20.5072938,20.8147418 20.5398982,20.8286806 20.5717174,20.8442753 Z" id="矩形备份" fill="#FFDCD4" transform="translate(21.317058, 22.472427) scale(-1, 1) rotate(6.000000) translate(-21.317058, -22.472427) "></path>
                        <path d="M16.1283438,25.9417457 L17.6630755,26.6730084 C18.2566618,26.955838 18.5343539,27.6464573 18.3017849,28.2614769 C18.0926876,28.8144264 17.4749265,29.0931738 16.9219769,28.8840765 C16.8942318,28.8735847 16.8669348,28.8619441 16.8401566,28.849185 L16.5978751,28.7337437 C15.8673442,28.3856633 15.5255866,27.5357132 15.8118109,26.7788043 L16.1283438,25.9417457 L16.1283438,25.9417457 Z" id="矩形备份-3" fill="#FFDCD4" transform="translate(17.009335, 27.645655) scale(-1, 1) rotate(29.000000) translate(-17.009335, -27.645655) "></path>
                        <path d="M22.5945064,24.6123706 L25.4933577,25.8301385 C26.0817972,26.0773339 26.3584302,26.7547498 26.1112348,27.3431893 C26.1101195,27.3458443 26.1089942,27.3484951 26.1078591,27.3511417 C25.8538307,27.9434079 25.1695913,28.2198478 24.5754426,27.9702541 L21.6765914,26.7524862 C21.0881519,26.5052908 20.8115189,25.8278749 21.0587143,25.2394354 C21.0598296,25.2367804 21.0609549,25.2341295 21.06209,25.2314829 C21.3161184,24.6392168 22.0003578,24.3627768 22.5945064,24.6123706 Z" id="矩形备份-2" fill="#FFDCD4" transform="translate(23.584975, 26.291312) scale(-1, 1) rotate(6.000000) translate(-23.584975, -26.291312) "></path>
                    </g>
                    <g id="编组" transform="translate(73.538019, 30.255837) rotate(-18.000000) translate(-73.538019, -30.255837) translate(62.538019, 18.255837)">
                        <g id="路径" transform="translate(0.027239, 4.245997)">
                            <mask id="mask-20" fill="white">
                                <use xlink:href="#path-19"></use>
                            </mask>
                            <use id="蒙版" fill="#FFDDD6" transform="translate(9.078464, 9.464736) rotate(23.000000) translate(-9.078464, -9.464736) " xlink:href="#path-19"></use>
                        </g>
                        <path d="M4.49017673,2.7704028 L14.2512602,2.68644272 C16.0488985,2.67098032 17.5604952,4.03141003 17.7338302,5.82073882 C17.9050054,7.58777379 16.6523621,9.17546624 14.8939984,9.4201508 L7.29090412,10.478157 C5.33992146,10.7496454 3.53825269,9.3881463 3.2667643,7.43716363 C3.24266417,7.26397412 3.23133296,7.08924677 3.23286236,6.91439516 L3.25833599,4.00206457 C3.26426482,3.32423791 3.81234921,2.77623314 4.49017673,2.7704028 Z" id="矩形" fill="#15102A" transform="translate(10.618404, 6.853503) rotate(23.000000) translate(-10.618404, -6.853503) "></path>
                        <path d="M14.3101466,9.87547545 L20.4439135,10.9875903 C21.1536722,11.1162768 21.6803614,11.7183069 21.7135754,12.4388722 C21.7460335,13.1430402 21.2505756,13.7618032 20.5563493,13.8840982 L14.3727861,14.9733952 C12.9468135,15.2245946 11.587197,14.2722528 11.3359975,12.8462803 C11.3110151,12.7044638 11.2977593,12.5608301 11.2963645,12.4168367 C11.2826831,11.0043691 12.4166232,9.84824693 13.8290908,9.83456547 C13.990374,9.83300325 14.1514433,9.84670092 14.3101466,9.87547545 Z" id="矩形备份" fill="#15102A" transform="translate(16.518369, 12.416837) rotate(-243.000000) translate(-16.518369, -12.416837) "></path>
                        <ellipse id="椭圆形" fill="#FFE0D8" transform="translate(14.514466, 13.194282) rotate(23.000000) translate(-14.514466, -13.194282) " cx="14.5144664" cy="13.1942822" rx="2.21235582" ry="2.17560527"></ellipse>
                        <path d="M12.1780335,8.76457277 L16.265604,8.77963047 C16.9731887,8.78223706 17.5461698,9.35516922 17.5488369,10.0627537 C17.5515871,10.7923959 17.0091159,11.4092198 16.2851004,11.4997016 L12.1777325,12.0130084 C11.3351493,12.1183078 10.5667385,11.5206212 10.461439,10.678038 C10.4537748,10.6167102 10.4498154,10.554976 10.4495824,10.4931716 C10.4459975,9.54207804 11.214105,8.76815822 12.1651986,8.76457331 C12.1694769,8.76455719 12.1737552,8.76455701 12.1780335,8.76457277 Z" id="矩形" fill="#15102A" transform="translate(13.998349, 10.493172) rotate(-9.000000) translate(-13.998349, -10.493172) "></path>
                    </g>
                    <path d="M71.8898,40.5822421 L65.018699,42.9020493 L70.7263221,53.7165704 C74.3615103,50.8943298 76.1791045,48.8556299 76.1791045,47.6004707 C76.1791045,46.3453115 74.7493363,44.005902 71.8898,40.5822421 Z" id="路径-15" fill="#30E0A7"></path>
                    <g id="编组-3" transform="translate(20.402985, 42.194182) scale(-1, 1) translate(-20.402985, -42.194182) translate(0.402985, 22.194182)">
                        <path d="M19.7966723,31.4277256 C20.3288193,31.4267791 20.8536548,31.3943207 21.3694076,31.3321203 L23.9402291,33.6204281 C24.2111463,33.8615736 24.6262551,33.8374388 24.8674006,33.5665216 C24.9263254,33.5003219 24.9712412,33.4228803 24.9994426,33.3388611 L26.200338,29.761087 L26.200338,29.761087 C26.5626156,29.5590598 26.9144386,29.3405019 27.2547809,29.1064388 C30.7153157,26.7265306 32.9889224,22.7436301 32.9969667,18.2357176 C33.0098892,10.9629165 27.1209116,5.07763932 19.8435459,5.0905618 C12.5661801,5.10352689 6.65621654,11.0097901 6.64325146,18.2825912 C6.63032897,25.5553922 12.5193065,31.4406694 19.7966723,31.4277256 Z" id="椭圆形" fill="url(#linearGradient-21)" transform="translate(19.820109, 19.686074) rotate(40.000000) translate(-19.820109, -19.686074) "></path>
                        <g id="编组-2" transform="translate(13.839394, 16.943934)" fill="#FFFFFF">
                            <ellipse id="椭圆形" cx="1.51254722" cy="1.50068142" rx="1.50611362" ry="1.50068142"></ellipse>
                            <ellipse id="椭圆形备份-6" cx="6.96094664" cy="1.50068142" rx="1.50611362" ry="1.50068142"></ellipse>
                            <ellipse id="椭圆形备份-7" cx="12.7008198" cy="1.50068142" rx="1.50611362" ry="1.50068142"></ellipse>
                        </g>
                    </g>
                    <circle id="椭圆形" fill="url(#linearGradient-22)" transform="translate(17.409392, 83.242204) rotate(-8.000000) translate(-17.409392, -83.242204) " cx="17.4093918" cy="83.2422039" r="4.25977438"></circle>
                    <circle id="椭圆形备份-5" fill="#13B6F6" transform="translate(110.272473, 114.764534) rotate(-8.000000) translate(-110.272473, -114.764534) " cx="110.272473" cy="114.764534" r="2.55586463"></circle>
                    <path d="M109.347623,44.3834679 L107.786867,49.5305453 C107.492172,50.5023918 108.041112,51.5291263 109.012959,51.8238208 C109.320731,51.9171469 109.647597,51.9281193 109.960935,51.8556427 L115.503941,50.5735171 C116.493363,50.3446589 117.109921,49.3570483 116.881063,48.3676269 C116.801364,48.0230667 116.623994,47.708799 116.37021,47.462491 L112.38796,43.5975392 C111.659209,42.8902538 110.495072,42.9076551 109.787786,43.6364061 C109.583611,43.8467784 109.432694,44.1029199 109.347623,44.3834679 Z" id="路径-8" fill="url(#linearGradient-23)" transform="translate(112.828338, 47.034122) rotate(-8.000000) translate(-112.828338, -47.034122) "></path>
                </g>
            </g>
        </g>
    </g>
</svg>