<?xml version="1.0" encoding="UTF-8"?>
<svg width="12px" height="13px" viewBox="0 0 12 13" version="1.1" xmlns="http://www.w3.org/2000/svg" xmlns:xlink="http://www.w3.org/1999/xlink">
    <title>切片</title>
    <g id="页面-1" stroke="none" stroke-width="1" fill="none" fill-rule="evenodd">
        <g id="首页" transform="translate(-636.000000, -431.000000)">
            <g id="交易挖矿" transform="translate(530.000000, 319.000000)">
                <g id="去交易" transform="translate(40.000000, 100.774364)">
                    <g id="编组-2" transform="translate(20.000000, 8.000000)">
                        <g id="编组-20" transform="translate(46.000000, 4.000000)">
                            <rect id="矩形" x="0" y="0" width="12" height="12"></rect>
                            <path d="M9.0671083,12 C8.89997492,12 8.73284154,11.93668 8.60458817,11.8100399 L3.19574672,6.46855851 C3.07056002,6.34481181 3,6.1763851 3,6.00023839 C3,5.82409167 3.07056002,5.65566496 3.19574672,5.53191826 L8.60458817,0.190103494 C8.86318824,-0.0654432418 9.28008169,-0.0631899079 9.53544176,0.195890162 C9.79096182,0.454636898 9.78841516,0.871210343 9.52965509,1.12674375 L4.59509376,6.00023839 L9.52965509,10.8733997 C9.78840182,11.1289331 9.79096182,11.5455065 9.53544176,11.8042533 C9.40672172,11.9347466 9.23700168,12 9.0671083,12 Z" id="icon-jian" fill="#FFFFFF" fill-rule="nonzero" transform="translate(6.362708, 6.000000) scale(-1, 1) translate(-6.362708, -6.000000) "></path>
                        </g>
                    </g>
                </g>
            </g>
        </g>
    </g>
</svg>