<?xml version="1.0" encoding="UTF-8"?>
<svg width="118px" height="28px" viewBox="0 0 118 28" version="1.1" xmlns="http://www.w3.org/2000/svg" xmlns:xlink="http://www.w3.org/1999/xlink">
    <title>logo-light.ee6a3e13</title>
    <defs>
        <filter id="filter-1">
            <feColorMatrix in="SourceGraphic" type="matrix" values="0 0 0 0 0.560784 0 0 0 0 0.580392 0 0 0 0 0.662745 0 0 0 1.000000 0"></feColorMatrix>
        </filter>
    </defs>
    <g id="页面-1" stroke="none" stroke-width="1" fill="none" fill-rule="evenodd">
        <g id="首页" transform="translate(-1210.000000, -984.000000)">
            <g id="合作伙伴" transform="translate(580.000000, 944.000000)">
                <g id="logo" transform="translate(0.000000, 37.000000)">
                    <g id="logo-light.ee6a3e13" transform="translate(630.000000, 3.000000)" filter="url(#filter-1)">
                        <g>
                            <path d="M24.468719,13.3623055 C24.468719,6.50944631 18.9912293,0.954074074 12.2343882,0.954074074 L0.721914456,0.954074074 C0.323212874,0.954074074 0,1.28187992 0,1.68624725 L0,25.0383459 C0,25.4426976 0.323212874,25.770537 0.721914456,25.770537 L5.58064868,25.770537 C5.97933482,25.770537 6.30253663,25.4426976 6.30253663,25.0383459 L6.30253663,8.05119086 C6.30253663,7.64683919 6.62573843,7.31904453 7.02446868,7.31904453 L15.2443208,7.31904453 C15.7061385,7.31904453 15.7562114,7.78120547 15.3638781,8.02819244 L9.70374367,11.5918743 C9.4916287,11.7254352 9.36258621,11.9606992 9.36258621,12.2139504 L9.36258621,27.1010898 C9.36258621,27.6309036 9.90024119,27.9852762 10.3776322,27.7701918 L16.6101859,24.9615652 C16.6101859,9.19113415 16.61023,7.63695076 16.61023,24.9532875 C21.2058631,23.1675538 24.468719,18.6514061 24.468719,13.3623055 Z M12.2343441,15.8896712 L12.2343441,16.9284483 C12.2343441,17.3642103 12.7107645,17.6263655 13.0709364,17.3888195 L15.9063859,15.5187881 C16.2136173,15.3161872 16.3989532,14.9697343 16.3989532,14.5980905 L16.3989532,13.6615087 C16.3989532,13.2320557 15.9347532,12.9687819 15.5740078,13.1936653 L12.7501611,14.9540291 C12.4296504,15.1538559 12.2343441,15.5080943 12.2343441,15.8896712 Z" id="形状" fill="#13C09D"></path>
                            <path d="M77.8550149,6.92992936 L77.8550149,21.8563825 C77.8550149,22.0629417 78.0151498,22.2304015 78.2125353,22.2304463 C78.8547874,22.2306702 79.4970396,22.2313868 80.1392918,22.2322378 L80.142289,22.2322378 C80.8239326,22.2331335 81.5051481,22.2340741 82.1872199,22.2340741 C83.5993183,22.2340741 84.6898625,22.2304015 85.7238885,22.2230564 C86.9480211,22.213875 88.0163006,21.9650814 88.9886704,21.4629258 C90.1909664,20.841412 90.9599564,19.7783399 91.1547728,18.4683104 C91.3478767,17.1729712 90.9334099,15.7922226 90.0997666,14.9522362 C89.8625615,14.7133406 89.5881057,14.5056169 89.3222133,14.3045218 L89.3106528,14.2958331 L89.2811092,14.273529 C89.1667883,14.1869103 89.0494702,14.0980074 88.936862,14.0075818 L88.926586,13.9993409 L88.9227325,13.9855464 C88.9167381,13.960779 88.9141691,13.9488208 89.0246365,13.8836552 C89.4031371,13.6624058 89.7336829,13.3759908 90.0085668,13.0317106 C90.5964416,12.2954517 90.8614777,11.1708418 90.7009146,10.0976925 C90.5394953,9.01898966 89.9627528,8.10187947 89.0764448,7.515255 C88.1533144,6.90386313 87.062342,6.58623138 85.8334995,6.57243688 C84.380297,6.55591035 82.9198155,6.55407407 81.8095756,6.55407407 C81.2687993,6.55407407 80.7293074,6.55407407 80.1885311,6.55501461 C79.7997545,6.55501461 79.4105497,6.55523854 79.021773,6.55546248 C78.7520271,6.55559684 78.4822812,6.55577599 78.2125353,6.55586557 C78.0151498,6.55591035 77.8550149,6.72337019 77.8550149,6.92992936 Z M82.1114341,9.89229783 C81.9140486,9.89274571 81.7543419,10.060116 81.7543419,10.2664512 L81.7543419,12.156611 C81.7543419,12.3631253 81.9144768,12.5305404 82.1118623,12.53063 L83.6220112,12.5313913 C84.1782016,12.5313913 84.9129381,12.5304508 85.6528126,12.524942 C85.7958207,12.5240462 85.9589528,12.4836481 86.1537693,12.401956 C86.6157627,12.2082507 86.8525396,11.8180635 86.858534,11.241561 C86.8658129,10.6365737 86.6358866,10.2353688 86.1751777,10.0490087 C85.9452514,9.95540318 85.6729365,9.90215105 85.4079004,9.89937423 C84.9394845,9.89202911 84.4239701,9.88929708 83.7877123,9.88929708 C83.371961,9.88929708 82.9562098,9.8902824 82.5404586,9.89131251 C82.3974504,9.89167081 82.2544423,9.89198432 82.1114341,9.89229783 Z M85.5967226,18.7951236 C85.0473829,18.7978556 84.4616489,18.7987962 83.6990815,18.7987962 L82.1118623,18.7980348 C81.9144768,18.7979452 81.7543419,18.6305302 81.7543419,18.4240158 L81.7543419,16.1148257 C81.7543419,15.9082666 81.9144768,15.7408067 82.1118623,15.740762 C82.2475916,15.7407172 82.3828927,15.7406724 82.518622,15.7406276 C83.514541,15.7402245 84.5104601,15.7398662 85.5063791,15.7454198 C85.7491504,15.7463156 85.9782204,15.7711278 86.1863101,15.8188711 C86.9103423,15.9831958 87.3123922,16.5367672 87.2896993,17.337296 C87.2704317,18.022139 86.8058693,18.5968053 86.1619045,18.7354669 C85.9812175,18.773984 85.7906827,18.7941831 85.5967226,18.7951236 Z" id="形状" fill="#16221F"></path>
                            <path d="M93.4261066,17.1408311 C93.4217597,16.4639149 93.5771416,15.794241 93.8816902,15.1788443 C94.1849069,14.5769265 94.6182005,14.0389422 95.1544901,13.5980857 C95.722744,13.1363873 96.3797876,12.7777714 97.0909928,12.5408266 C97.8767814,12.2761598 98.7074088,12.1453151 99.5433636,12.1545289 C100.372659,12.1457174 101.197515,12.2730617 101.978864,12.5306471 C102.693621,12.7634075 103.354216,13.1186034 103.926466,13.5777267 C104.472078,14.0199915 104.908036,14.5661434 105.205037,15.1788443 C105.512693,15.8183418 105.668075,16.5118349 105.660084,17.212007 C105.667187,17.9131448 105.50781,18.6072012 105.193938,19.2451697 C104.890278,19.8542092 104.455652,20.3991541 103.915811,20.8462471 C103.341786,21.3017091 102.675863,21.6472485 101.957111,21.8628285 C101.160667,22.1138556 100.324269,22.2393088 99.4829866,22.2338771 C98.6594624,22.2397514 97.8408216,22.1142177 97.063468,21.8628285 C96.3540386,21.6369886 95.7009905,21.280827 95.1433914,20.8157489 C94.6057699,20.3584764 94.1760279,19.8029496 93.8816902,19.1841732 C93.5802492,18.5391233 93.4253112,17.8436587 93.4261066,17.1408311 Z M97.2228455,17.1764392 C97.2175181,17.4767543 97.2810027,17.7746956 97.4093038,18.0506685 C97.5291699,18.3070469 97.6983142,18.5412155 97.9083018,18.7419487 C98.1156257,18.9385779 98.3637928,19.0942074 98.6381529,19.1994224 C98.9249435,19.3101495 99.2325997,19.3671627 99.5433636,19.3671627 C99.8541274,19.3671627 100.161784,19.3101495 100.448574,19.1994224 C100.72471,19.0947707 100.974653,18.9391412 101.183753,18.7419487 C101.390189,18.5396866 101.557113,18.3057996 101.677423,18.0506685 C101.80528,17.7817368 101.870985,17.4907562 101.869244,17.1967579 C101.870541,16.9077086 101.804837,16.6217976 101.677423,16.3580964 C101.557113,16.1029653 101.390189,15.8690784 101.183753,15.6668163 C100.974653,15.4696238 100.72471,15.313954 100.448574,15.2093426 C100.161784,15.0986154 99.8541274,15.0416022 99.5433636,15.0416022 C99.2325997,15.0416022 98.9249435,15.0986154 98.6381529,15.2093426 C98.3637928,15.3145575 98.1156257,15.4701871 97.9083018,15.6668163 C97.699646,15.8646927 97.5309457,16.0953206 97.4093038,16.3479169 C97.2832225,16.6083993 97.2197379,16.891011 97.2228455,17.1764392 Z" id="形状" fill="#16221F" fill-rule="nonzero"></path>
                            <path d="M105.847364,22.2340741 C105.699404,22.2340741 105.610003,22.083751 105.690911,21.9699643 L109.086383,17.1739218 L105.964033,12.4149071 C105.889383,12.3009155 105.978784,12.1557534 106.124062,12.1557534 L110.144898,12.1557534 C110.215079,12.1557534 110.279001,12.1917572 110.311185,12.2489373 L111.792122,14.9037161 L113.341005,12.2445956 C113.37319,12.18889 113.436665,12.1540741 113.505504,12.1540741 L117.395367,12.1540741 C117.53975,12.1540741 117.629599,12.2978845 117.55629,12.411917 L114.496073,17.1739218 L117.864725,21.9628372 C117.94474,22.076665 117.855338,22.2265374 117.707825,22.2265374 L113.63156,22.2265374 C113.564062,22.2265374 113.501481,22.1929503 113.468402,22.1388012 L111.76262,19.3350101 L110.013031,22.1477305 C109.979952,22.2011423 109.918265,22.2340741 109.851214,22.2340741 L105.847364,22.2340741 Z" id="路径" fill="#16221F" fill-rule="nonzero"></path>
                            <path d="M38.5089443,6.56779815 C40.0904874,6.58342811 41.5399711,6.9313722 42.8188916,7.60150648 C44.543029,8.50484678 45.7060654,9.87730771 46.2766292,11.6785267 C46.882154,13.5898658 46.856982,15.4874399 46.2043764,17.3188976 C45.3844241,19.6185878 43.6534809,21.1480143 41.0580685,21.8650384 C40.1589178,22.1128975 39.1807086,22.2340741 38.0675499,22.2340741 L38.0617697,22.2340741 L31.5312852,22.2340741 C31.3162983,22.2340741 31.142006,22.0680502 31.142006,21.8632623 L31.142006,6.93172742 C31.142006,6.72516337 31.3177899,6.55771861 31.5346415,6.5576298 C32.0541155,6.55736338 32.5735896,6.55660853 33.0930636,6.55589808 C34.8984038,6.55336709 36.7036974,6.5508361 38.5089443,6.56779815 Z M38.8327766,18.6023299 C38.1012989,18.671155 36.6190451,18.6775935 36.6190451,18.6775935 C36.4838159,18.6781707 36.3485867,18.6771939 36.2133575,18.676217 C36.1335998,18.6756841 36.0538421,18.6751069 35.9740377,18.6748405 C35.7557411,18.67413 35.5762746,18.5065965 35.5762746,18.2986559 L35.5762746,10.49327 C35.5762746,10.2884821 35.7505203,10.1224138 35.9655072,10.121881 C36.0571051,10.121659 36.1487029,10.1213925 36.2403008,10.1211261 C36.9368641,10.1190836 37.6336138,10.117041 38.3297109,10.1352908 C40.3140514,10.1876422 41.7404142,11.3186381 42.1452162,13.1620402 C42.4410796,14.5124771 42.3032866,15.68388 41.7240525,16.7432979 C41.1255665,17.8376167 40.1261476,18.4811534 38.8327766,18.6023299 Z" id="形状" fill="#16221F"></path>
                            <path d="M60.397278,22.2333561 C60.210838,22.2333112 60.0595829,22.0655361 60.0595829,21.8586328 L60.0595829,6.92879736 C60.0595829,6.72184923 60.210838,6.55407407 60.397278,6.55407407 L70.0695134,6.55407407 C70.0496966,8.5122736 68.6071115,10.098846 66.8381553,10.098846 L63.8555187,10.098846 L63.8555187,13.3419457 L69.6598306,13.3419457 C69.6400137,15.2679273 68.2216942,16.8287434 66.4806433,16.8287434 L63.8421727,16.8287434 L63.8421727,21.8593957 C63.8421727,22.0663438 63.6909176,22.2340741 63.5044776,22.2340741 L60.397278,22.2333561 Z" id="路径" fill="#16221F" fill-rule="nonzero"></path>
                            <path d="M53.7658609,23.3540741 C53.5517431,23.3540741 53.3309988,23.3460495 53.1098404,23.3300438 C52.0222711,23.2527046 51.1111315,22.9939675 50.3258949,22.5414269 C48.9136286,21.7261338 48.0907039,20.4244669 47.8803135,18.6729488 C47.7436425,17.5340282 47.8616765,16.4759603 48.2298597,15.5281973 C48.7757152,14.1260718 49.7233003,13.156057 51.0461093,12.6439613 C51.8856002,12.3185554 52.7242627,12.1540741 53.5384902,12.1540741 C54.5436428,12.1540741 55.5305726,12.4047867 56.4715313,12.8991416 C57.8924948,13.6450767 58.7133487,14.9333838 58.9129711,16.7275838 C58.9771651,17.3117268 58.9519016,17.9474438 58.8338677,18.6720379 C58.8288978,18.7058277 58.8202006,18.73875 58.8102609,18.7787426 C58.8032202,18.8054187 58.7804417,18.8241137 58.7539359,18.8241137 L51.7547274,18.8241137 C51.7116553,18.8241137 51.670654,18.8463222 51.6453906,18.8836688 C51.6205414,18.9210155 51.6139149,18.9681217 51.6284103,19.0108035 C51.7472726,19.3664424 51.9601479,19.6491664 52.2802892,19.8750246 C52.7404147,20.2004305 53.2879268,20.3586657 53.9543011,20.3586657 C54.0797899,20.3586657 54.2139759,20.3533305 54.3531318,20.3417925 C55.1793697,20.2769022 55.9306457,20.0163866 56.5883228,19.5674029 C56.59702,19.5620676 56.6061314,19.5585108 56.615657,19.5585108 C56.6326373,19.5585108 56.6487893,19.566492 56.6599715,19.5798084 L58.3890659,21.6167398 C58.3994197,21.6291887 58.4052179,21.6451944 58.4035613,21.662111 C58.402733,21.6781167 58.394864,21.6932115 58.3832677,21.703882 C58.0063873,22.0381799 57.5972028,22.318258 57.1325216,22.5600785 C56.1095604,23.094426 55.0079098,23.3540741 53.7658609,23.3540741 Z M53.5902595,15.1147817 C53.4730538,15.1147817 53.3500499,15.1218954 53.2150356,15.1361227 C52.3142499,15.2303351 51.7013015,15.845622 51.6163998,16.7435895 C51.6130866,16.7827145 51.6246829,16.8218396 51.6503605,16.8511617 C51.6756239,16.8805272 51.7124836,16.8974004 51.7497575,16.8974004 L55.279595,16.8974004 C55.3160406,16.8974004 55.3500013,16.8823056 55.3752647,16.8547185 C55.4009423,16.8271748 55.4146094,16.7916066 55.4138166,16.7533925 C55.3968007,16.098113 55.0331732,15.5361784 54.4661959,15.2854658 C54.2056928,15.17078 53.9195122,15.1147817 53.5902595,15.1147817 Z" id="形状" fill="#16221F" fill-rule="nonzero"></path>
                            <path d="M75.3178224,12.1540741 L72.6067059,12.1540741 C72.4340305,12.1540741 72.2939424,12.3182446 72.2939424,12.5207465 L72.2939424,21.8674017 C72.2939424,22.0699035 72.4340305,22.2340741 72.6067059,22.2340741 L75.3178224,22.2340741 C75.4904978,22.2340741 75.6305859,22.0699035 75.6305859,21.8674017 L75.6305859,12.5207465 C75.6305859,12.3182446 75.4904978,12.1540741 75.3178224,12.1540741 Z" id="路径" fill="#16221F" fill-rule="nonzero"></path>
                            <path d="M74.0011369,9.91407407 C73.3059074,9.88974152 72.8572618,9.65817991 72.5475099,9.16551275 C72.2716252,8.72599401 72.2156871,8.10871352 72.4051914,7.59248019 C72.5950762,7.07548047 73.003005,6.72516833 73.5536328,6.60572806 C73.7126946,6.57104938 73.8668096,6.55407407 74.0125528,6.55407407 C74.46234,6.55407407 74.8504812,6.71930553 75.1663217,7.04451873 C75.593277,7.48480385 75.729507,8.0666776 75.5594098,8.72821652 C75.4079586,9.31671945 75.0221005,9.69577083 74.4102073,9.85433478 C74.2994729,9.88311234 74.1845526,9.8941482 74.0924642,9.90376627 C74.058597,9.90744489 74.0270129,9.91039545 74.0011369,9.91407407 Z" id="路径" fill="#16221F" fill-rule="nonzero"></path>
                        </g>
                    </g>
                </g>
            </g>
        </g>
    </g>
</svg>