<?xml version="1.0" encoding="UTF-8"?>
<svg width="16px" height="16px" viewBox="0 0 16 16" version="1.1" xmlns="http://www.w3.org/2000/svg" xmlns:xlink="http://www.w3.org/1999/xlink">
    <title>切片</title>
    <g id="页面-1" stroke="none" stroke-width="1" fill="none" fill-rule="evenodd">
        <g id="首页" transform="translate(-184.000000, -388.000000)">
            <g id="更多" transform="translate(24.000000, 372.000000)">
                <g id="侧边/选项/下拉" transform="translate(160.000000, 16.000000)">
                    <rect id="矩形" x="0" y="0" width="16" height="16"></rect>
                    <g id="下-拉-(1)" transform="translate(3.000000, 3.000000)" fill-rule="nonzero">
                        <rect id="矩形" fill="#000000" opacity="0" x="0" y="0" width="10" height="10"></rect>
                        <path d="M9.76464844,3.22167969 L5.50390625,7.88085938 C5.37695313,8.02539062 5.19335938,8.10839844 5,8.10839844 C4.80761719,8.10839844 4.62402344,8.02539062 4.49609375,7.88085938 L0.235351562,3.22167969 C0.02734375,3.00195312 -0.037109375,2.68164063 0.0712890625,2.3984375 C0.1796875,2.11523438 0.438476562,1.91796875 0.740234375,1.89160156 L9.2578125,1.89160156 C9.56054688,1.91699219 9.82128906,2.11328125 9.92871094,2.39746094 C10.0371094,2.68164063 9.97265625,3 9.76464844,3.22167969 Z" id="路径" fill="#8F94A9"></path>
                    </g>
                </g>
            </g>
        </g>
    </g>
</svg>