<?xml version="1.0" encoding="UTF-8"?>
<svg width="20px" height="20px" viewBox="0 0 20 20" version="1.1" xmlns="http://www.w3.org/2000/svg" xmlns:xlink="http://www.w3.org/1999/xlink">
    <title>切片</title>
    <defs>
        <filter id="filter-1">
            <feColorMatrix in="SourceGraphic" type="matrix" values="0 0 0 0 0.470885 0 0 0 0 0.489254 0 0 0 0 0.566404 0 0 0 1.000000 0"></feColorMatrix>
        </filter>
    </defs>
    <g id="页面-1" stroke="none" stroke-width="1" fill="none" fill-rule="evenodd">
        <g id="首页" transform="translate(-48.000000, -386.000000)">
            <g id="更多" transform="translate(24.000000, 372.000000)">
                <g id="侧边/选项-icon" transform="translate(24.000000, 14.000000)">
                    <rect id="矩形" x="0" y="0" width="20" height="20"></rect>
                    <g filter="url(#filter-1)" id="icon-more">
                        <g transform="translate(1.000000, 1.000000)">
                            <rect id="矩形" fill="#565A69" fill-rule="nonzero" opacity="0" x="0" y="0" width="18" height="18"></rect>
                            <path d="M9,7.2 C8.0057696,7.2 7.20001406,8.00596648 7.20001406,9.00000352 C7.20001406,9.99404056 8.00578718,10.7999895 9,10.7999895 C9.99421282,10.7999895 10.7999859,9.99404056 10.7999859,9.00000352 C10.7999859,8.00596648 9.9942304,7.2 9,7.2 Z M16.1999965,7.2 C15.2057661,7.2 14.4000105,8.00596648 14.4000105,9.00000352 C14.4000105,9.99404056 15.2057837,10.7999895 16.1999965,10.7999895 C17.1942093,10.7999895 18,9.99402298 18,9.00000352 C18,8.00596648 17.1942093,7.2 16.1999965,7.2 Z M1.80000352,7.2 C0.805790693,7.2 0,8.00596648 0,9.00000352 C0,9.99404056 0.805773115,10.7999895 1.79998594,10.7999895 C2.79421634,10.7999895 3.59998945,9.99402298 3.59998945,9.00000352 C3.59998945,8.00596648 2.79421634,7.2 1.80000352,7.2 Z" id="形状" fill="#040000" fill-rule="nonzero"></path>
                        </g>
                    </g>
                </g>
            </g>
        </g>
    </g>
</svg>