<?xml version="1.0" encoding="UTF-8"?>
<svg width="20px" height="20px" viewBox="0 0 20 20" version="1.1" xmlns="http://www.w3.org/2000/svg" xmlns:xlink="http://www.w3.org/1999/xlink">
    <title>切片</title>
    <defs>
        <path d="M4.71983055,0.0597391994 C4.60845629,0.171959565 2.90653571,1.48315125 2.77632202,1.80473796 L2.77632202,1.80473796 C2.77632202,1.80473796 8.61488208,4.5454831 8.36969248,5.56272443 L8.36969248,5.56272443 C8.36969248,5.56272443 8.41041888,5.89994383 8.54783588,6.36138727 L8.54783588,6.36138727 C8.68525288,6.82255156 0.10472505,15.021338 0.10472505,15.021338 L0.10472505,15.021338 C0.10472505,15.021338 0.0296443924,15.6776317 0.10472505,16.0547703 L0.10472505,16.0547703 C0.180082758,16.4316297 1.10792454,16.7735948 1.10792454,16.7735948 L1.10792454,16.7735948 C1.10792454,16.7735948 2.42335982,15.7401624 2.75775965,15.4032222 L2.75775965,15.4032222 C3.09243653,15.0662819 8.68830043,9.44995972 8.68830043,9.44995972 L8.68830043,9.44995972 L10.0483408,8.19208667 C10.0483408,8.19208667 10.8498476,8.26606278 11.0964225,8.07930799 L11.0964225,8.07930799 C11.3429973,7.89311151 13.0363294,10.4161156 13.1698676,10.6857795 L13.1698676,10.6857795 C13.3034059,10.9548851 14.3736516,13.6506862 14.507467,13.6506862 L14.507467,13.6506862 C14.6415594,13.6506862 15.870832,13.4131252 16.0683689,12.7509692 L16.0683689,12.7509692 C16.2656288,12.0882549 16.4917019,12.2730556 16.4027687,11.4718804 L16.4027687,11.4718804 C16.3132814,10.670426 13.0842591,5.82094293 12.8133038,5.56328274 L12.8133038,5.56328274 C12.5423485,5.30618085 14.3514876,3.76664027 14.4631389,3.63125003 L14.4631389,3.63125003 C14.5747902,3.49669725 14.3764221,2.47052297 14.1730671,2.30610059 L14.1730671,2.30610059 C13.4818264,1.74639454 12.3896937,2.57576445 11.8098272,3.58630605 L11.8098272,3.58630605 C11.2302378,4.59768512 11.3416121,3.92352546 11.3416121,3.92352546 L11.3416121,3.92352546 C11.3416121,3.92352546 7.86324435,1.38516779 7.306096,1.09289236 L7.306096,1.09289236 C6.78274781,0.818762018 5.06060254,0.0496896145 4.75972581,0.0496896145 L4.75972581,0.0496896145 C4.74005523,0.0496896145 4.72675681,0.052760321 4.71983055,0.0597391994" id="path-1"></path>
    </defs>
    <g id="页面-1" stroke="none" stroke-width="1" fill="none" fill-rule="evenodd">
        <g id="首页" transform="translate(-48.000000, -274.000000)">
            <g id="侧边/选项" transform="translate(24.000000, 260.000000)">
                <g id="侧边/选项-icon" transform="translate(24.000000, 14.000000)">
                    <g id="编组" transform="translate(1.000000, 1.000000)">
                        <g transform="translate(0.160371, 0.683177)">
                            <mask id="mask-2" fill="white">
                                <use xlink:href="#path-1"></use>
                            </mask>
                            <g id="Clip-2"></g>
                        </g>
                        <g transform="translate(0.211534, 0.277737)">
                            <path d="M15.7270369,9.69959037 C14.9942505,8.30557317 14.0688477,7.01944152 13.0315305,5.83977959 C13.3374674,5.53198014 13.6431231,5.22389753 13.9487788,4.91609807 C14.1506746,4.71250304 14.3528516,4.50919116 14.5547475,4.30587929 C14.7468016,4.11276133 14.9112989,3.91652856 14.9405429,3.62798427 C14.9815969,3.21626357 14.7498947,2.95490304 14.4841683,2.68731291 C14.2634326,2.46502903 14.0446652,2.18016588 13.7331045,2.08983651 C13.0883313,1.90238183 12.6651373,2.49504444 12.2675319,2.89515541 C11.9070438,3.25845503 11.5465556,3.6214715 11.1857863,3.98477112 C10.1436888,3.05542632 9.02060804,2.21414558 7.81035774,1.52039337 C7.24066279,1.19390508 6.65297154,0.901679661 6.04840877,0.647398238 C5.76721679,0.529035616 5.4826505,0.419451082 5.19442872,0.320626788 C4.90817528,0.222651985 4.62276542,0.103723035 4.32976337,0.243606134 C4.09243733,0.356871801 3.89785248,0.617382836 3.71620246,0.800590053 L2.94292451,1.57929152 C2.69322602,1.8307413 2.53322778,2.15581376 2.71375304,2.50608784 C2.85013115,2.77141266 3.1009544,2.84361953 3.36105699,2.94046167 C3.66474433,3.0540105 3.96421379,3.17860274 4.25890299,3.31423837 C5.72503799,3.98760277 7.08094574,4.89033013 8.31931524,5.92557833 C8.21639897,6.19486746 8.1137639,6.46359025 8.01084763,6.73259621 C7.98244724,6.80763472 8.01647147,6.90391054 8.06989795,6.95771173 L8.15172481,7.0401125 C6.70386729,8.49784164 5.25600976,9.95613711 3.80787105,11.4141494 L1.45829194,13.8720144 C1.17175731,14.1608418 0.884941482,14.4493861 0.59840685,14.7384967 C0.299780963,15.0389339 0.0396783783,15.3679707 0.173806955,15.8360411 C0.276723221,16.1962259 0.650146175,16.4785406 0.906312072,16.732822 C1.28985794,17.1125451 1.83818231,17.1739918 2.24844141,16.7905875 C2.68091468,16.3856627 3.08583114,15.9470414 3.50340123,15.5265426 C3.71288926,15.3155853 3.38811252,14.9879644 3.1783433,15.1992048 C2.78833002,15.5913872 2.39859793,15.9841359 2.00886584,16.3766015 C1.78053795,16.6065308 1.50750053,16.6739238 1.25161583,16.4253057 C1.13576473,16.3128895 1.02385032,16.1959427 0.91024876,16.0815444 C0.803395806,15.973942 0.661956238,15.8637911 0.617246713,15.7128646 C0.523890974,15.3991187 0.790460975,15.199488 0.9825151,15.0060869 C1.27298642,14.7135783 1.56345774,14.4207865 1.85421025,14.128278 C3.77671984,12.1922845 5.10500967,10.7628718 7.02751926,8.8268784 C7.56487714,8.28575168 8.10251622,7.74462495 8.6395929,7.20378139 C8.7273248,7.11543417 8.7273248,6.96479083 8.6395929,6.87644361 C8.59319623,6.82943836 8.54679955,6.78271627 8.50012168,6.73599418 C8.60500629,6.46217443 8.70932852,6.18835468 8.81393193,5.91453493 C8.84092637,5.84431022 8.8116824,5.73727416 8.75488162,5.68913625 C7.72093869,4.81330948 6.61163632,4.02469727 5.42050707,3.37936613 C4.89467806,3.09478614 4.35366469,2.83937206 3.7991541,2.61652186 C3.53511482,2.5103353 2.8310101,2.37073537 3.20471424,1.9706244 C3.59669587,1.55040877 4.00554901,1.12169822 4.43071129,0.735745458 C4.58143019,0.598977165 4.72399453,0.651928865 4.90339502,0.710543847 C5.17868197,0.800590053 5.45087581,0.90026384 5.71969535,1.00871572 C6.27279998,1.23156592 6.81043905,1.4940591 7.33261256,1.78232022 C8.67052402,2.51996288 9.90439445,3.43486631 11.0353486,4.46360173 C11.1272984,4.54741833 11.2690191,4.55591325 11.3606877,4.46360173 L12.2621892,3.55577741 C12.5599715,3.25562339 12.8459438,2.92800245 13.1634095,2.64823625 C13.4859367,2.36365626 13.7578494,2.61057542 13.9929259,2.84730066 C14.1726076,3.02824256 14.4892297,3.25052644 14.4878238,3.53199162 C14.4864178,3.74917854 14.3289503,3.8783014 14.1903227,4.01761817 C14.0013617,4.20790449 13.8124006,4.39847397 13.6234396,4.5887603 L12.5543477,5.66535046 C12.4629603,5.75737882 12.4708337,5.90009356 12.5543477,5.99297141 C13.4679405,7.01151292 14.2901458,8.11217204 14.978785,9.29806358 C15.2827535,9.82135096 15.56029,10.3607787 15.8043647,10.9154973 C15.9168414,11.1700619 16.0206013,11.4288739 16.1164878,11.6905176 C16.1662587,11.8261533 16.213499,11.9629216 16.2584897,12.099973 C16.3020745,12.2313612 16.3954302,12.4083388 16.3332868,12.5451071 C16.3001061,12.6192961 16.2168733,12.6835744 16.1614785,12.7393577 C16.0526572,12.8489422 15.9435547,12.9582436 15.8350146,13.0681113 C15.601344,13.3031376 15.3676735,13.5381638 15.1342842,13.7734733 C15.0881687,13.8199122 15.0434591,13.8754124 14.9925634,13.916188 C14.7676098,14.0971299 14.6230771,13.9122237 14.5482801,13.7032485 C14.3497585,13.1490963 14.1155256,12.60712 13.8540171,12.0804347 C13.1766256,10.7164329 12.3108354,9.45493653 11.3373488,8.28971597 C11.2895462,8.23251681 11.1832556,8.20306774 11.11352,8.22996834 C10.8413261,8.33530541 10.5694135,8.44064248 10.2975008,8.54597955 C10.2511042,8.49925746 10.2047075,8.45225221 10.1583108,8.40553012 C10.0705789,8.31746606 9.92098478,8.3171829 9.83297168,8.40553012 C8.98489666,9.26011958 8.13654045,10.1141427 7.28818423,10.968449 L6.91785439,11.3413762 C6.70836636,11.5526167 7.0331431,11.8802376 7.24291232,11.6689972 C8.09126854,10.8146909 8.93934356,9.96038457 9.78798097,9.10636144 C9.85715419,9.03641989 9.92632742,8.9667615 9.99578184,8.89710312 L10.0773275,8.97922072 C10.130754,9.03302192 10.2266405,9.06728478 10.3008751,9.0386852 L11.1025535,8.72833727 C12.0217701,9.8431546 12.8335713,11.0514161 13.4746891,12.3502901 C13.6220337,12.6493115 13.7615049,12.9525803 13.8880413,13.2615124 C14.0022052,13.540146 14.0713785,13.8725807 14.2296895,14.128278 C14.4765761,14.5278226 15.0105597,14.5329196 15.3305562,14.2310666 C15.7635918,13.8221775 16.1946591,13.3926175 16.5981696,12.9542793 C17.0033673,12.5142422 16.7013671,11.9428169 16.5216854,11.4642695 C16.2944823,10.859714 16.0273499,10.2704493 15.7270369,9.69959037 Z" id="Fill-3" stroke="#787D90" stroke-width="1.3" fill="#7A3CEF"></path>
                            <path d="M4.52213216,13.7603628 L4.32557896,13.9582945 C4.11609094,14.1692518 4.44143006,14.4965896 4.65091809,14.2856323 C5.11038579,13.8226589 5.57013469,13.3599686 6.02960239,12.8969952 C6.09512012,12.8313011 6.16063785,12.7653239 6.22587439,12.6993466 C6.43536242,12.4883893 6.11030449,12.1610515 5.90081646,12.3720088 C5.44106756,12.8349823 4.98159986,13.2979557 4.52213216,13.7603628 Z" id="Fill-5" fill="#A0A0A0"></path>
                            <path d="M4.52213216,13.7603628 L4.32557896,13.9582945 C4.11609094,14.1692518 4.44143006,14.4965896 4.65091809,14.2856323 C5.11038579,13.8226589 5.57013469,13.3599686 6.02960239,12.8969952 C6.09512012,12.8313011 6.16063785,12.7653239 6.22587439,12.6993466 C6.43536242,12.4883893 6.11030449,12.1610515 5.90081646,12.3720088 C5.44106756,12.8349823 4.98159986,13.2979557 4.52213216,13.7603628 Z" id="Fill-7" stroke="#787D90" stroke-width="1.3" fill="#7A3CEF"></path>
                        </g>
                    </g>
                </g>
            </g>
        </g>
    </g>
</svg>