<?xml version="1.0" encoding="UTF-8"?>
<svg width="163px" height="30px" viewBox="0 0 163 30" version="1.1" xmlns="http://www.w3.org/2000/svg" xmlns:xlink="http://www.w3.org/1999/xlink">
    <title>编组</title>
    <defs>
        <filter id="filter-1">
            <feColorMatrix in="SourceGraphic" type="matrix" values="0 0 0 0 0.560784 0 0 0 0 0.580392 0 0 0 0 0.662745 0 0 0 1.000000 0"></feColorMatrix>
        </filter>
        <polygon id="path-2" points="0 0.092733604 28.28909 0.092733604 28.28909 28.3758685 0 28.3758685"></polygon>
        <path d="M2.17099247,0.499458196 C1.50090498,0.807205165 0.97414956,1.32026966 0.615217136,1.93606936 L0.615217136,1.93606936 C0.25601705,2.55186905 0.0406843614,3.27025108 0.0646399557,4.0400007 L0.0646399557,4.0400007 L0.0646399557,11.5318736 C0.0646399557,12.6864216 0.950327796,13.6099683 2.02739273,13.6099683 L2.02739273,13.6099683 L2.21903749,13.6099683 L2.17099247,4.0400007 C2.17099247,3.70641705 2.24285925,3.424201 2.38645899,3.16766875 L2.38645899,3.16766875 C2.53005872,2.9111365 2.74539141,2.73150278 3.03272471,2.57770574 L3.03272471,2.57770574 C3.31992419,2.44928673 3.60725749,2.39791913 3.87050137,2.44928673 L3.87050137,2.44928673 C4.13387907,2.50065433 4.39712295,2.62876758 4.61258947,2.8597689 L4.61258947,2.8597689 L8.10729581,6.22083056 C8.13111758,6.24636148 8.27485114,6.37478048 8.39449528,6.50304661 L8.39449528,6.50304661 C8.75342771,6.83663026 8.94507246,7.01626398 8.94507246,7.55501228 L8.94507246,7.55501228 C8.94507246,8.01670917 8.77751713,8.42734422 8.49031766,8.73509119 L8.49031766,8.73509119 C8.20298436,9.04314392 7.81996251,9.22262477 7.3891633,9.22262477 L7.3891633,9.22262477 C6.95836409,9.22262477 6.57534225,9.04314392 6.28814277,8.73509119 L6.28814277,8.73509119 C6.0009433,8.42734422 5.83338797,8.01670917 5.83338797,7.55501228 L5.83338797,7.55501228 C5.83338797,6.9904273 6.04872066,6.78526266 6.43174251,6.42614809 L6.43174251,6.42614809 C6.47951987,6.37478048 6.76685317,6.09256444 6.88649731,5.98998211 L6.88649731,5.98998211 L5.28281079,4.45048287 L4.99547749,4.73269892 C4.13387907,5.55381614 3.67899044,5.98998211 3.67899044,7.5805432 L3.67899044,7.5805432 C3.67899044,8.68387647 4.08596788,9.65894362 4.75618921,10.3771728 L4.75618921,10.3771728 C5.42641053,11.0955548 6.35987573,11.5318736 7.36520771,11.5318736 L7.36520771,11.5318736 C8.39449528,11.5318736 9.30400489,11.0955548 9.97436004,10.3771728 L9.97436004,10.3771728 C10.6444475,9.65894362 11.051425,8.65803979 11.051425,7.5805432 L11.051425,7.5805432 C11.051425,6.01566591 10.5727146,5.55381614 9.73493793,4.80975032 L9.73493793,4.80975032 C9.68702674,4.75838272 9.63911555,4.70701512 9.47156022,4.55306519 L9.47156022,4.55306519 L6.04872066,1.14078881 C5.52209907,0.627724319 4.87583335,0.29414067 4.20561203,0.191405467 L4.20561203,0.191405467 C4.02467368,0.163734229 3.84186172,0.149057772 3.65824677,0.149057772 L3.65824677,0.149057772 C3.16213846,0.149057772 2.66027544,0.255767849 2.17099247,0.499458196 L2.17099247,0.499458196 Z" id="path-4"></path>
        <path d="M3.17775738,0.187736353 C2.4060163,0.290165796 1.6621659,0.623902325 1.0558403,1.13727258 L1.0558403,1.13727258 L0.559593876,1.57343855 L0.0634958057,2.0097574 L1.91006658,3.54971529 L2.15811562,3.29303016 L2.65421369,2.85671131 C2.90226273,2.62570998 3.20535135,2.49744386 3.50858833,2.44607626 L3.50858833,2.44607626 C3.81167695,2.39486153 4.14235955,2.44607626 4.47304214,2.57434238 L4.47304214,2.57434238 C4.77613077,2.70276138 5.0241798,2.90792603 5.21718925,3.16461116 L5.21718925,3.16461116 C5.38245637,3.4211434 5.4926839,3.70351233 5.46523828,4.03724886 L5.46523828,4.03724886 L5.41005034,13.6099683 L5.6305054,13.6099683 C6.87075058,13.6099683 7.86279837,12.6861159 7.89039234,11.5312621 L7.89039234,11.5312621 L7.94543193,4.03724886 C7.94543193,3.26734636 7.72512522,2.52312766 7.31166071,1.932706 L7.31166071,1.932706 C6.89834455,1.31675342 6.26457333,0.829066971 5.52042623,0.495483322 L5.52042623,0.495483322 C4.9416946,0.264634875 4.34738572,0.149210652 3.761088,0.149057772 L3.761088,0.149057772 C3.56540817,0.149057772 3.37076682,0.161899672 3.17775738,0.187736353 L3.17775738,0.187736353 Z" id="path-6"></path>
        <polygon id="path-8" points="0.0205051858 0.106173627 0.0205051858 16.8086218 9.7850169 16.8086218 9.7850169 13.6469904 3.35635235 13.6469904 3.35635235 9.76977583 8.81463064 9.76977583 8.81463064 6.78715289 3.35635235 6.78715289 3.35635235 3.267805 9.7850169 3.267805 9.7850169 0.106173627"></polygon>
        <path d="M1.73622419,0.0105847386 L0.128480009,0.0105847386 L0.128480009,16.8089998 L5.84467768,16.8089998 C7.92869899,16.8089998 9.83395288,15.9248117 11.2034858,14.5690951 L11.2034858,14.5690951 C12.6326079,13.2135236 13.4659839,11.3274102 13.4659839,9.26440117 L13.4659839,9.26440117 L13.4659839,7.55518339 C13.4659839,5.49217434 12.5730188,3.60606093 11.2034858,2.25048941 L11.2034858,2.25048941 C9.83395288,0.835759357 7.92869899,0.0105847386 5.84467768,0.0105847386 L5.84467768,0.0105847386 L1.73622419,0.0105847386 Z M3.76065636,3.25241466 L5.84467768,3.25241466 C7.03558853,3.25241466 8.16691023,3.78281156 8.88125327,4.60798618 L8.88125327,4.60798618 C9.65547612,5.37414726 10.1317533,6.43523105 10.1317533,7.61405193 L10.1317533,7.61405193 L10.1317533,9.32341471 C10.1317533,10.5022356 9.65547612,11.5631744 8.88125327,12.3293355 L8.88125327,12.3293355 C8.10732109,13.0954965 7.03558853,13.5671699 5.84467768,13.5671699 L5.84467768,13.5671699 L3.76065636,13.5671699 L3.76065636,3.25241466 Z" id="path-10"></path>
        <path d="M0.116198117,1.70805781 L0.116198117,16.6918427 L3.54333056,16.6918427 L3.54333056,6.9756327 L7.38399159,12.4192332 C7.91585429,13.1801744 8.9792949,13.3556201 9.74754102,12.8288481 L9.74754102,12.8288481 C9.92482859,12.711836 10.0428779,12.5946789 10.1610696,12.4192332 L10.1610696,12.4192332 L10.811124,11.4825564 L8.74305387,8.55609366 L3.24785128,0.8299595 C2.952372,0.303187511 2.4206517,0.0105847386 1.82983554,0.0105847386 L1.82983554,0.0105847386 C0.884444243,0.0105847386 0.116198117,0.771380947 0.116198117,1.70805781 L0.116198117,1.70805781 Z M14.2382565,0.8299595 L9.33401243,7.7367189 L11.4019402,10.6631816 L13.9427772,7.09278981 L13.9427772,16.8089998 L17.3106714,16.8089998 L17.3106714,1.76649137 C17.3106714,1.23957438 17.0744304,0.71294739 16.6018059,0.420199621 L16.6018059,0.420199621 C16.3041906,0.21618966 15.9620043,0.117447099 15.6238051,0.117447099 L15.6238051,0.117447099 C15.0890944,0.117447099 14.5639245,0.363941011 14.2382565,0.8299595 L14.2382565,0.8299595 Z M0.116426862,16.6918427 L0.116426862,16.7504213 L0.116426862,16.6918427 Z" id="path-12"></path>
        <path d="M4.28787326,0.170556082 L0.0124692229,0.170556082 L6.39255494,8.54080473 L0.209821615,16.6055382 L4.55095847,16.6055382 L8.56312337,11.3512656 L10.2073674,9.15183505 C10.5363394,8.7851859 10.5363394,8.23528957 10.2073674,7.8687952 L10.2073674,7.8687952 L5.86638452,2.18673945 L4.28787326,0.109422096 L4.28787326,0.170556082 Z M12.8383735,0.170556082 L9.15518054,4.93606635 L11.325595,7.74652722 L14.4826175,3.59189251 L17.1136236,0.170556082 L12.8383735,0.170556082 Z M9.15518054,12.1455431 L12.5752883,16.6055382 L16.9162712,16.6055382 L14.3511519,13.2453358 L11.325595,9.33492747 L9.15518054,12.1455431 Z" id="path-14"></path>
        <polygon id="path-16" points="0.126896664 0.0892406728 0.126896664 4.04355933 2.81778575 4.04355933 2.81778575 0.163835721 2.81778575 0.0892406728"></polygon>
        <path d="M7.11266621,0.108418224 C5.89273654,0.108418224 4.87590868,0.192453848 4.13032284,0.444867421 L4.13032284,0.444867421 C3.38473699,0.696974294 2.70685175,1.11730577 2.16466079,1.70570849 L2.16466079,1.70570849 C0.80903684,3.21911648 0.131298136,5.40480946 0.131298136,8.34728311 L0.131298136,8.34728311 C0.131298136,10.7852363 0.741336239,12.8030114 1.8935653,14.4003017 L1.8935653,14.4003017 C2.50360341,15.241118 3.18148865,15.8295207 3.99477509,16.1658165 L3.99477509,16.1658165 C4.74036094,16.501959 5.82474287,16.6701836 7.18036681,16.6701836 L7.18036681,16.6701836 L12.1962194,16.6701836 L12.1962194,13.1393073 L8.26489528,13.1393073 C7.45160883,13.1393073 6.90927133,13.1393073 6.43492751,12.9710827 L6.43492751,12.9710827 C5.96029061,12.8030114 5.55379392,12.6347868 5.2148513,12.298491 L5.2148513,12.298491 C4.33371772,11.457828 3.85922735,10.1968336 3.85922735,8.43131874 L3.85922735,8.43131874 C3.85922735,6.83402847 4.13032284,5.65706968 4.6725138,4.90044236 L4.6725138,4.90044236 C5.2825519,4.05962607 6.29923323,3.6392946 7.72255777,3.6392946 L7.72255777,3.6392946 L12.1283722,3.6392946 L12.1283722,0.108418224 L7.11266621,0.108418224 Z" id="path-18"></path>
        <path d="M1.64619097,2.62519317 C0.547575102,4.08646226 0.0305245128,5.95364796 0.0305245128,8.22690362 L0.0305245128,8.22690362 C0.0305245128,10.9060759 0.547575102,12.9356589 1.77548694,14.396928 L1.77548694,14.396928 C2.9387508,15.9396258 4.61906524,16.6701836 6.751649,16.6701836 L6.751649,16.6701836 C8.75520337,16.6701836 10.4356511,16.0207477 11.598915,14.6406006 L11.598915,14.6406006 C12.8914748,13.0980562 13.5376881,11.1495952 13.5376881,8.63282022 L13.5376881,8.63282022 C13.5376881,6.1973206 13.0206375,4.24885957 11.9866696,2.70631515 L11.9866696,2.70631515 C10.8232724,1.00137341 9.0784433,0.108418224 6.751649,0.108418224 L6.751649,0.108418224 C4.48976927,0.108418224 2.80958812,1.00137341 1.64619097,2.62519317 L1.64619097,2.62519317 Z M4.10214795,11.4743898 C3.77890802,10.7436786 3.58509736,9.68817271 3.58509736,8.38930093 L3.58509736,8.38930093 C3.58509736,5.06069278 4.61906524,3.43702637 6.751649,3.43702637 L6.751649,3.43702637 C8.88449934,3.5183017 9.91860052,5.14181476 9.85408583,8.38930093 L9.85408583,8.38930093 C9.85408583,11.6366337 8.81998465,13.2604535 6.751649,13.2604535 L6.751649,13.2604535 C5.58851844,13.2604535 4.68371323,12.6921396 4.10214795,11.4743898 L4.10214795,11.4743898 Z" id="path-20"></path>
        <path d="M0.0332311198,0.108418224 L0.0332311198,16.6701836 L3.90501936,16.6701836 L3.90501936,3.6392946 L8.06355299,3.6392946 L8.06355299,16.6701836 L11.9351961,16.6701836 L11.9351961,3.6392946 L14.0145355,3.6392946 C14.8750619,3.6392946 15.4484075,3.89155482 15.8789609,4.31188629 L15.8789609,4.31188629 C16.0938749,4.56414652 16.2372475,4.81625339 16.3089339,5.15270259 L16.3089339,5.15270259 C16.3807653,5.48884508 16.3807653,6.07740116 16.3807653,6.83402847 L16.3807653,6.83402847 L16.3807653,16.6701836 L20.2524085,16.6701836 L20.2524085,6.07740116 C20.2524085,4.22800402 19.8222904,2.71459603 18.9619091,1.62167286 L18.9619091,1.62167286 C18.4599596,1.03311679 17.8864688,0.696974294 17.2411466,0.444867421 L17.2411466,0.444867421 C16.5958244,0.192453848 15.5919253,0.108418224 14.301426,0.108418224 L14.301426,0.108418224 L0.0332311198,0.108418224 Z" id="path-22"></path>
    </defs>
    <g id="页面-1" stroke="none" stroke-width="1" fill="none" fill-rule="evenodd">
        <g id="首页" transform="translate(-580.000000, -983.000000)">
            <g id="合作伙伴" transform="translate(580.000000, 944.000000)">
                <g id="logo" transform="translate(0.000000, 37.000000)">
                    <g id="编组" transform="translate(0.000000, 2.000000)" filter="url(#filter-1)">
                        <g>
                            <g transform="translate(1.158841, 1.049825)">
                                <mask id="mask-3" fill="white">
                                    <use xlink:href="#path-2"></use>
                                </mask>
                                <g id="Clip-2"></g>
                                <path d="M14.1445169,1.26284446 C10.6516443,1.26284446 7.37614481,2.61230855 4.92162923,5.06243568 C2.47400322,7.53011491 1.12477189,10.7882238 1.12477189,14.2342864 C1.12477189,17.7052145 2.4731596,20.9627383 4.92148863,23.4062834 C7.40046922,25.8556792 10.6766717,27.2057284 14.1445169,27.2057284 C17.6373894,27.2057284 20.9128889,25.8564106 23.3674045,23.4062834 C25.8150305,20.9384579 27.1642618,17.6803491 27.1642618,14.2342864 C27.1642618,10.7633583 25.8158741,7.50612704 23.3674045,5.06243568 C20.8884239,2.61289362 17.612362,1.26284446 14.1445169,1.26284446 M14.1445169,28.3758685 C10.3870285,28.3758685 6.8358055,26.9114381 4.1447948,24.2527335 C1.47121895,21.584229 -5.62414071e-05,18.0270031 -5.62414071e-05,14.2342864 C-5.62414071e-05,10.4686293 1.47051593,6.91228093 4.14085791,4.22008107 C6.807966,1.55786604 10.359892,0.0927043505 14.1445169,0.0927043505 C17.9018646,0.0927043505 21.4530876,1.5571347 24.1442389,4.21583931 C26.8178148,6.8844901 28.28909,10.4415698 28.28909,14.2342864 C28.28909,17.9997973 26.8185178,21.5562919 24.1481758,24.2484918 C21.4810677,26.9108531 17.9291417,28.3758685 14.1445169,28.3758685" id="Fill-1" fill="#12193E" mask="url(#mask-3)"></path>
                            </g>
                            <g transform="translate(8.111888, 7.988636)">
                                <mask id="mask-5" fill="white">
                                    <use xlink:href="#path-4"></use>
                                </mask>
                                <g id="Clip-4"></g>
                                <polygon id="Fill-3" fill="#12193E" mask="url(#mask-5)" points="-0.606384347 14.37452 11.7205757 14.37452 11.7205757 -0.615188179 -0.606384347 -0.615188179"></polygon>
                            </g>
                            <g transform="translate(16.223776, 7.988636)">
                                <mask id="mask-7" fill="white">
                                    <use xlink:href="#path-6"></use>
                                </mask>
                                <g id="Clip-6"></g>
                                <polygon id="Fill-5" fill="#4CA9DC" mask="url(#mask-7)" points="-0.678277625 14.37452 8.68720536 14.37452 8.68720536 -0.615188179 -0.678277625 -0.615188179"></polygon>
                            </g>
                            <g transform="translate(71.848152, 6.832168)">
                                <mask id="mask-9" fill="white">
                                    <use xlink:href="#path-8"></use>
                                </mask>
                                <g id="Clip-8"></g>
                                <polygon id="Fill-7" fill="#12193E" mask="url(#mask-9)" points="-0.701363996 17.5594961 10.5070305 17.5594961 10.5070305 -0.644700683 -0.701363996 -0.644700683"></polygon>
                            </g>
                            <g transform="translate(57.942058, 6.832168)">
                                <mask id="mask-11" fill="white">
                                    <use xlink:href="#path-10"></use>
                                </mask>
                                <g id="Clip-10"></g>
                                <polygon id="Fill-9" fill="#12193E" mask="url(#mask-11)" points="-0.598216873 17.5339819 14.1928261 17.5339819 14.1928261 -0.714397354 -0.598216873 -0.714397354"></polygon>
                            </g>
                            <g transform="translate(38.241758, 6.832168)">
                                <mask id="mask-13" fill="white">
                                    <use xlink:href="#path-12"></use>
                                </mask>
                                <g id="Clip-12"></g>
                                <polygon id="Fill-11" fill="#12193E" mask="url(#mask-13)" points="-0.595800147 17.5339819 18.0226696 17.5339819 18.0226696 -0.714397354 -0.595800147 -0.714397354"></polygon>
                            </g>
                            <g transform="translate(85.754246, 6.832168)">
                                <mask id="mask-15" fill="white">
                                    <use xlink:href="#path-14"></use>
                                </mask>
                                <g id="Clip-14"></g>
                                <polygon id="Fill-13" fill="#4BA7DA" mask="url(#mask-15)" points="-0.757081953 17.3793861 17.8834826 17.3793861 17.8834826 -0.664425825 -0.757081953 -0.664425825"></polygon>
                            </g>
                            <g transform="translate(105.454545, 19.553322)">
                                <mask id="mask-17" fill="white">
                                    <use xlink:href="#path-16"></use>
                                </mask>
                                <g id="Clip-16"></g>
                                <polygon id="Fill-15" fill="#12193E" mask="url(#mask-17)" points="-0.581232043 5.0199343 3.52591446 5.0199343 3.52591446 -0.887134304 -0.581232043 -0.887134304"></polygon>
                            </g>
                            <g transform="translate(110.089910, 6.832168)">
                                <mask id="mask-19" fill="white">
                                    <use xlink:href="#path-18"></use>
                                </mask>
                                <g id="Clip-18"></g>
                                <polygon id="Fill-17" fill="#12193E" mask="url(#mask-19)" points="-0.601392355 17.436932 12.9289099 17.436932 12.9289099 -0.658330175 -0.601392355 -0.658330175"></polygon>
                            </g>
                            <g transform="translate(125.154845, 6.832168)">
                                <mask id="mask-21" fill="white">
                                    <use xlink:href="#path-20"></use>
                                </mask>
                                <g id="Clip-20"></g>
                                <polygon id="Fill-19" fill="#12193E" mask="url(#mask-21)" points="-0.635949565 17.436932 14.2041621 17.436932 14.2041621 -0.658330175 -0.635949565 -0.658330175"></polygon>
                            </g>
                            <g transform="translate(141.378621, 6.832168)">
                                <mask id="mask-23" fill="white">
                                    <use xlink:href="#path-22"></use>
                                </mask>
                                <g id="Clip-22"></g>
                                <polygon id="Fill-21" fill="#12193E" mask="url(#mask-23)" points="-0.692339181 17.436932 20.9779788 17.436932 20.9779788 -0.658330175 -0.692339181 -0.658330175"></polygon>
                            </g>
                        </g>
                    </g>
                </g>
            </g>
        </g>
    </g>
</svg>