<?xml version="1.0" encoding="UTF-8"?>
<svg width="81px" height="27px" viewBox="0 0 81 27" version="1.1" xmlns="http://www.w3.org/2000/svg" xmlns:xlink="http://www.w3.org/1999/xlink">
    <title>编组</title>
    <defs>
        <filter id="filter-1">
            <feColorMatrix in="SourceGraphic" type="matrix" values="0 0 0 0 0.560784 0 0 0 0 0.580392 0 0 0 0 0.662745 0 0 0 1.000000 0"></feColorMatrix>
        </filter>
        <polygon id="path-2" points="0.113384542 0.0968911701 15.4309136 0.0968911701 15.4309136 15.4470373 0.113384542 15.4470373"></polygon>
        <polygon id="path-4" points="0 0.0991110487 15.358551 0.0991110487 15.358551 25.4671436 0 25.4671436"></polygon>
        <polygon id="path-6" points="0 25.81625 79.875 25.81625 79.875 0.0059375 0 0.0059375"></polygon>
    </defs>
    <g id="页面-1" stroke="none" stroke-width="1" fill="none" fill-rule="evenodd">
        <g id="首页" transform="translate(-832.000000, -984.000000)">
            <g id="合作伙伴" transform="translate(580.000000, 944.000000)">
                <g id="logo" transform="translate(0.000000, 37.000000)">
                    <g id="编组" transform="translate(252.000000, 3.000000)" filter="url(#filter-1)">
                        <g>
                            <g transform="translate(10.125000, 0.005937)">
                                <mask id="mask-3" fill="white">
                                    <use xlink:href="#path-2"></use>
                                </mask>
                                <g id="Clip-2"></g>
                                <path d="M3.04132326,0.0968435967 L3.04132326,0.0968435967 L0.113384542,0.0968435967 L0.113384542,7.67909304 L3.75655219,7.67909304 C6.02471837,7.67909304 7.87014844,9.52605124 7.87014844,11.7962542 L7.87014844,15.4470373 L15.4309136,15.4470373 L15.4309136,12.7264728 L15.4280616,12.7264728 C15.4294876,12.6500382 15.4309136,12.5736036 15.4309136,12.4968519 C15.4309136,5.64850149 9.88400747,0.0968435967 3.04132326,0.0968435967" id="Fill-1" fill="#191B2E" mask="url(#mask-3)"></path>
                            </g>
                            <path d="M13.1702112,8.9834375 L9,8.9834375 L9,13.1452268 C9,14.5630408 10.1573139,15.7165625 11.5797888,15.7165625 L15.75,15.7165625 L15.75,11.5547732 C15.75,10.1369592 14.5926861,8.9834375 13.1702112,8.9834375" id="Fill-3" fill="#191B2E"></path>
                            <g transform="translate(0.000000, 0.005937)">
                                <mask id="mask-5" fill="white">
                                    <use xlink:href="#path-4"></use>
                                </mask>
                                <g id="Clip-6"></g>
                                <path d="M7.60178706,13.4936854 L7.60178706,0.0990948276 L-1.58446816e-05,0.0990948276 L-1.58446816e-05,12.5483185 L0.00283619801,12.5483185 C0.00156862348,12.6265043 -1.58446816e-05,12.7045279 -1.58446816e-05,12.7832003 C-1.58446816e-05,19.7882914 5.54704875,25.4671436 12.389733,25.4671436 L15.358551,25.4671436 L15.358551,17.7050128 L11.7155418,17.7050128 C9.44705869,17.7050128 7.60178706,15.8159011 7.60178706,13.4936854" id="Fill-5" fill="#191B2E" mask="url(#mask-5)"></path>
                            </g>
                            <mask id="mask-7" fill="white">
                                <use xlink:href="#path-6"></use>
                            </mask>
                            <g id="Clip-8"></g>
                            <polygon id="Fill-7" fill="#191B2E" mask="url(#mask-7)" points="18 25.81625 25.875 25.81625 25.875 17.9609375 18 17.9609375"></polygon>
                            <path d="M43.4718781,11.2388454 L37.034489,11.2388454 L37.034489,5.59447638 L43.471393,5.59447638 C44.9844746,5.59447638 46.2156728,6.86061193 46.2156728,8.41691047 C46.2156728,9.97270988 44.984798,11.2385127 43.4718781,11.2388454 M43.4718781,19.1051909 L37.034489,19.1051909 L37.034489,13.4609882 L43.4718781,13.4609882 C44.984798,13.4609882 46.2156728,14.7269574 46.2156728,16.2830895 C46.2156728,17.8393881 44.984798,19.1051909 43.4718781,19.1051909 M46.5302243,12.3499168 C47.703849,11.3837606 48.3745148,9.95590572 48.3745148,8.41691047 C48.3745148,5.63540533 46.175242,3.3725 43.471393,3.3725 L34.875,3.3725 L34.875,21.3275 L43.4718781,21.3275 C46.1758889,21.3275 48.375,19.0645947 48.375,16.2830895 C48.375,14.744427 47.703849,13.3164058 46.5302243,12.3499168" id="Fill-9" fill="#191B2E" mask="url(#mask-7)"></path>
                            <polygon id="Fill-10" fill="#191B2E" mask="url(#mask-7)" points="57.4016088 14.1616913 57.375 14.1996674 61.530893 20.1724516 61.5539427 20.2053125 64.125 20.2053125 58.6598507 12.35"></polygon>
                            <polygon id="Fill-11" fill="#191B2E" mask="url(#mask-7)" points="77.625 4.4946875 79.875 4.4946875 79.875 2.2503125 77.625 2.2503125"></polygon>
                            <polygon id="Fill-12" fill="#191B2E" mask="url(#mask-7)" points="77.7155369 11.2223314 68.5344631 11.2223314 68.5344631 3.3725 66.375 3.3725 66.375 21.3275 68.5344631 21.3275 68.5344631 13.4770068 77.7155369 13.4770068 77.7155369 21.3275 79.875 21.3275 79.875 6.21177606 77.7155369 6.21177606"></polygon>
                            <polygon id="Fill-13" fill="#191B2E" mask="url(#mask-7)" points="57.3692994 12.3495036 57.3716747 12.3453669 51.9235276 3.40757935 51.9021505 3.3725 49.5 3.3725 54.9671489 12.3498345 49.5 21.3275 51.9021505 21.3275 56.1688576 14.3215586 56.1756666 14.3324795 57.375 12.3595972"></polygon>
                            <polygon id="Fill-14" fill="#191B2E" mask="url(#mask-7)" points="57.4015948 9.34175054 57.375 9.37970415 58.6591736 11.2278125 64.125 3.3725 61.5552976 3.3725"></polygon>
                            <path d="M35.6913456,25.6039182 C35.9683753,25.6039182 36.1539955,25.4221724 36.1539955,25.1631565 C36.1539955,24.8928721 35.9534844,24.7254535 35.6869225,24.7254535 L35.0960045,24.7254535 L35.0960045,25.6039182 L35.6913456,25.6039182 Z M35.6869225,24.517951 C35.8915618,24.517951 36.058163,24.3569716 36.058163,24.134981 C36.058163,23.9339177 35.9211962,23.782758 35.6764547,23.782758 L35.0960045,23.782758 L35.0960045,24.517951 L35.6869225,24.517951 Z M34.875,23.571875 L35.6913456,23.571875 C36.0494643,23.571875 36.2791675,23.8051342 36.2791675,24.1221026 C36.2791675,24.353752 36.1569442,24.5485371 35.9107283,24.6369148 L35.9107283,24.5854014 C36.2011746,24.6626715 36.375,24.8733936 36.375,25.1744251 C36.375,25.5363068 36.1259829,25.81625 35.735576,25.81625 L34.875,25.81625 L34.875,23.571875 Z" id="Fill-15" fill="#191B2E" mask="url(#mask-7)"></path>
                            <polygon id="Fill-16" fill="#191B2E" mask="url(#mask-7)" points="38.25 23.571875 39.3341757 23.571875 39.3341757 23.782758 38.4248445 23.782758 38.4248445 24.5517567 39.280521 24.5517567 39.280521 24.7624788 38.4248445 24.7624788 38.4248445 25.6055279 39.375 25.6055279 39.375 25.81625 38.25 25.81625"></polygon>
                            <polygon id="Fill-17" fill="#191B2E" mask="url(#mask-7)" points="42.1082539 23.7827429 41.625 23.7827429 41.625 23.571875 42.75 23.571875 42.75 23.7827429 42.2658002 23.7827429 42.2658002 25.81625 42.1082539 25.81625"></polygon>
                            <polygon id="Fill-18" fill="#191B2E" mask="url(#mask-7)" points="45.4832539 23.7827429 45 23.7827429 45 23.571875 46.125 23.571875 46.125 23.7827429 45.6408002 23.7827429 45.6408002 25.81625 45.4832539 25.81625"></polygon>
                            <polygon id="Fill-19" fill="#191B2E" mask="url(#mask-7)" points="48.375 23.571875 49.4591757 23.571875 49.4591757 23.782758 48.5498445 23.782758 48.5498445 24.5517567 49.405521 24.5517567 49.405521 24.7624788 48.5498445 24.7624788 48.5498445 25.6055279 49.5 25.6055279 49.5 25.81625 48.375 25.81625"></polygon>
                            <path d="M52.5900295,24.6401344 C52.8322747,24.6401344 52.9931315,24.4487299 52.9931315,24.2090315 C52.9931315,23.9643428 52.8263663,23.7825971 52.5900295,23.7825971 L51.9715657,23.7825971 L51.9715657,24.6401344 L52.5900295,24.6401344 Z M51.75,23.571875 L52.595938,23.571875 C52.9547267,23.571875 53.2145495,23.8437692 53.2145495,24.2025923 C53.2145495,24.4583886 53.0860414,24.6723303 52.8720089,24.7624788 L52.8720089,24.7302829 C53.0993353,24.8027236 53.1879616,24.9812498 53.1879616,25.2080698 L53.1879616,25.5685027 C53.1879616,25.6633196 53.2084934,25.7421995 53.25,25.81625 L53.0136632,25.81625 C52.9811669,25.7600682 52.9665436,25.6779687 52.9665436,25.5717223 L52.9665436,25.20646 C52.9665436,25.0005673 52.845421,24.8510174 52.5900295,24.8510174 L51.9715657,24.8510174 L51.9715657,25.81625 L51.75,25.81625 L51.75,23.571875 Z" id="Fill-20" fill="#191B2E" mask="url(#mask-7)"></path>
                            <polygon id="Fill-21" fill="#191B2E" mask="url(#mask-7)" points="57.8456243 24.6787695 57.3889571 23.571875 57.5685916 23.571875 57.9589879 24.5211706 57.9158113 24.5211706 58.3052035 23.571875 58.4858421 23.571875 58.0282712 24.6787695 58.5 25.81625 58.3172528 25.81625 57.9158113 24.8363683 57.9589879 24.8363683 57.5576468 25.81625 57.375 25.81625"></polygon>
                            <polygon id="Fill-22" fill="#191B2E" mask="url(#mask-7)" points="63 23.571875 63.1593325 23.571875 63.1593325 24.5501469 63.9656675 24.5501469 63.9656675 23.571875 64.125 23.571875 64.125 25.81625 63.9656675 25.81625 63.9656675 24.760869 63.1593325 24.760869 63.1593325 25.81625 63 25.81625"></polygon>
                            <polygon id="Fill-23" fill="#191B2E" mask="url(#mask-7)" points="66.2530527 25.81625 66.4969473 25.81625 66.4969473 23.571875 66.2530527 23.571875"></polygon>
                            <path d="M68.625,24.6886308 C68.625,24.0838507 68.8292359,23.571875 69.2128569,23.571875 C69.4740653,23.571875 69.6782091,23.8107142 69.7380349,24.2249195 L69.5945451,24.2249195 C69.5348114,23.9162443 69.3829461,23.7781241 69.2136853,23.7781241 C68.915661,23.7781241 68.7648081,24.198537 68.7648081,24.685527 C68.7648081,25.2206262 68.9423525,25.6100009 69.1935286,25.6100009 C69.4363291,25.6100009 69.6193958,25.2563202 69.6212366,24.8469258 L69.2192076,24.8469258 L69.2192076,24.6467292 L69.75,24.6467292 L69.75,25.7759003 L69.6562117,25.7759003 L69.631361,25.2982218 L69.6424057,25.2982218 C69.5650924,25.6208643 69.3912296,25.81625 69.1833122,25.81625 C68.8696413,25.81625 68.625,25.3587464 68.625,24.6886308" id="Fill-24" fill="#191B2E" mask="url(#mask-7)"></path>
                            <polygon id="Fill-25" fill="#191B2E" mask="url(#mask-7)" points="72 23.571875 72.1593325 23.571875 72.1593325 24.5501469 72.9656675 24.5501469 72.9656675 23.571875 73.125 23.571875 73.125 25.81625 72.9656675 25.81625 72.9656675 24.760869 72.1593325 24.760869 72.1593325 25.81625 72 25.81625"></polygon>
                            <polygon id="Fill-26" fill="#191B2E" mask="url(#mask-7)" points="75.375 23.571875 76.4591757 23.571875 76.4591757 23.782758 75.5498445 23.782758 75.5498445 24.5517567 76.405521 24.5517567 76.405521 24.7624788 75.5498445 24.7624788 75.5498445 25.6055279 76.5 25.6055279 76.5 25.81625 75.375 25.81625"></polygon>
                            <path d="M79.5900295,24.6401344 C79.8322747,24.6401344 79.9931315,24.4487299 79.9931315,24.2090315 C79.9931315,23.9643428 79.8263663,23.7825971 79.5900295,23.7825971 L78.9715657,23.7825971 L78.9715657,24.6401344 L79.5900295,24.6401344 Z M78.75,23.571875 L79.595938,23.571875 C79.9547267,23.571875 80.2145495,23.8437692 80.2145495,24.2025923 C80.2145495,24.4583886 80.0860414,24.6723303 79.8720089,24.7624788 L79.8720089,24.7302829 C80.0993353,24.8027236 80.1879616,24.9812498 80.1879616,25.2080698 L80.1879616,25.5685027 C80.1879616,25.6633196 80.2084934,25.7421995 80.25,25.81625 L80.0136632,25.81625 C79.9811669,25.7600682 79.9665436,25.6779687 79.9665436,25.5717223 L79.9665436,25.20646 C79.9665436,25.0005673 79.845421,24.8510174 79.5900295,24.8510174 L78.9715657,24.8510174 L78.9715657,25.81625 L78.75,25.81625 L78.75,23.571875 Z" id="Fill-27" fill="#191B2E" mask="url(#mask-7)"></path>
                        </g>
                    </g>
                </g>
            </g>
        </g>
    </g>
</svg>